<svg width="1465" height="707" viewBox="0 0 1465 707" fill="none" xmlns="http://www.w3.org/2000/svg">
<g clip-path="url(#clip0_2087_186)">
<rect width="1465" height="707" fill="#EDECED"/>
<mask id="path-2-inside-1_2087_186" fill="white">
<path d="M439.573 431.128C541.965 415.392 628.563 447.774 632.995 503.454C634.925 527.696 620.959 552.356 596.125 573.775C625.648 587.13 644.49 607.56 646.496 632.765C650.928 688.445 571.517 746.339 469.125 762.075C366.734 777.811 280.136 745.429 275.703 689.749C273.774 665.507 287.738 640.846 312.571 619.427C283.05 606.072 264.209 585.642 262.202 560.438C257.77 504.758 337.182 446.864 439.573 431.128Z"/>
</mask>
<path d="M439.573 431.128C541.965 415.392 628.563 447.774 632.995 503.454C634.925 527.696 620.959 552.356 596.125 573.775C625.648 587.13 644.49 607.56 646.496 632.765C650.928 688.445 571.517 746.339 469.125 762.075C366.734 777.811 280.136 745.429 275.703 689.749C273.774 665.507 287.738 640.846 312.571 619.427C283.05 606.072 264.209 585.642 262.202 560.438C257.77 504.758 337.182 446.864 439.573 431.128Z" fill="#FF9DD8"/>
<path d="M439.573 431.128L439.421 430.139V430.139L439.573 431.128ZM632.995 503.454L633.992 503.375V503.375L632.995 503.454ZM596.125 573.775L595.472 573.018L594.286 574.041L595.713 574.686L596.125 573.775ZM646.496 632.765L647.493 632.685V632.685L646.496 632.765ZM469.125 762.075L469.277 763.064V763.064L469.125 762.075ZM275.703 689.749L274.706 689.828V689.828L275.703 689.749ZM312.571 619.427L313.225 620.184L314.41 619.161L312.984 618.516L312.571 619.427ZM262.202 560.438L261.205 560.518H261.205L262.202 560.438ZM439.573 431.128L439.725 432.116C490.792 424.268 537.861 428.431 572.669 441.447C607.512 454.475 629.827 476.259 631.998 503.533L632.995 503.454L633.992 503.375C631.731 474.969 608.531 452.721 573.369 439.573C538.173 426.412 490.746 422.252 439.421 430.139L439.573 431.128ZM632.995 503.454L631.998 503.533C633.892 527.322 620.191 551.698 595.472 573.018L596.125 573.775L596.778 574.533C621.727 553.014 635.958 528.071 633.992 503.375L632.995 503.454ZM596.125 573.775L595.713 574.686C625.063 587.963 643.534 608.149 645.499 632.844L646.496 632.765L647.493 632.685C645.446 606.971 626.232 586.297 596.537 572.864L596.125 573.775ZM646.496 632.765L645.499 632.844C647.674 660.167 629.271 688.268 597.281 711.591C565.332 734.883 520.037 753.239 468.973 761.087L469.125 762.075L469.277 763.064C520.605 755.175 566.212 736.716 598.459 713.207C630.663 689.729 649.75 661.043 647.493 632.685L646.496 632.765ZM469.125 762.075L468.973 761.087C417.907 768.935 370.838 764.772 336.03 751.756C301.187 738.728 278.871 716.944 276.7 689.67L275.703 689.749L274.706 689.828C276.968 718.234 300.167 740.482 335.329 753.63C370.526 766.791 417.952 770.951 469.277 763.064L469.125 762.075ZM275.703 689.749L276.7 689.67C274.806 665.881 288.506 641.504 313.225 620.184L312.571 619.427L311.918 618.669C286.97 640.188 272.741 665.133 274.706 689.828L275.703 689.749ZM312.571 619.427L312.984 618.516C283.634 605.239 265.165 585.054 263.199 560.359L262.202 560.438L261.205 560.518C263.252 586.231 282.466 606.905 312.159 620.338L312.571 619.427ZM262.202 560.438L263.199 560.359C261.024 533.036 279.427 504.935 311.418 481.612C343.367 458.32 388.661 439.964 439.725 432.116L439.573 431.128L439.421 430.139C388.094 438.028 342.487 456.487 310.24 479.996C278.035 503.474 258.948 532.16 261.205 560.518L262.202 560.438Z" fill="black" fill-opacity="0.29" mask="url(#path-2-inside-1_2087_186)"/>
<path d="M332.384 276.488C328.153 276.229 317.77 276.679 312.535 279.669C304.487 284.267 297.881 296.805 291.84 312.538C289.246 319.295 289.575 329.342 290.372 341.732C291.718 362.66 302.437 373.324 306.738 378.468C310.01 382.38 315.13 385.679 318.188 388.432C318.936 389.106 319.875 389.505 318.983 389.304C308.962 387.05 298.112 385.467 293.091 385.01C291.647 384.879 292.494 384.566 293.575 384.471C301.872 383.746 312.362 387.665 314.198 387.783C314.056 384.013 312.957 374.288 312.625 363.084C312.588 358.951 312.817 357.972 314.005 356.053" stroke="#FF9DD8" stroke-width="6" stroke-linecap="round"/>
<mask id="path-5-inside-2_2087_186" fill="white">
<path d="M943.801 499.311C1005.68 415.344 1111.58 388.349 1180.33 439.017C1216.85 465.927 1235.54 509.332 1235.77 556.7C1256.08 563.402 1273.43 575.987 1284.87 594.095C1315.44 642.48 1292.32 711.974 1233.22 749.314C1187.87 777.968 1134.52 779.36 1098.33 756.591C1049.06 775.772 996.33 772.642 956.232 743.09C887.483 692.422 881.917 583.278 943.801 499.311Z"/>
</mask>
<path d="M943.801 499.311C1005.68 415.344 1111.58 388.349 1180.33 439.017C1216.85 465.927 1235.54 509.332 1235.77 556.7C1256.08 563.402 1273.43 575.987 1284.87 594.095C1315.44 642.48 1292.32 711.974 1233.22 749.314C1187.87 777.968 1134.52 779.36 1098.33 756.591C1049.06 775.772 996.33 772.642 956.232 743.09C887.483 692.422 881.917 583.278 943.801 499.311Z" fill="#FFEB6B"/>
<path d="M943.801 499.311L942.996 498.718V498.718L943.801 499.311ZM1180.33 439.017L1180.93 438.212V438.212L1180.33 439.017ZM1235.77 556.7L1234.77 556.705L1234.77 557.424L1235.45 557.649L1235.77 556.7ZM1284.87 594.095L1285.71 593.561V593.561L1284.87 594.095ZM1233.22 749.314L1233.76 750.159V750.159L1233.22 749.314ZM1098.33 756.591L1098.87 755.745L1098.44 755.477L1097.97 755.659L1098.33 756.591ZM956.232 743.09L955.639 743.895H955.639L956.232 743.09ZM943.801 499.311L944.606 499.904C1006.28 416.224 1111.58 389.587 1179.74 439.822L1180.33 439.017L1180.93 438.212C1111.59 387.111 1005.09 414.464 942.996 498.718L943.801 499.311ZM1180.33 439.017L1179.74 439.822C1215.95 466.512 1234.54 509.593 1234.77 556.705L1235.77 556.7L1236.77 556.695C1236.54 509.072 1217.74 465.343 1180.93 438.212L1180.33 439.017ZM1235.77 556.7L1235.45 557.649C1255.58 564.288 1272.72 576.739 1284.02 594.629L1284.87 594.095L1285.71 593.561C1274.13 575.236 1256.59 562.517 1236.08 555.75L1235.77 556.7ZM1284.87 594.095L1284.02 594.629C1314.2 642.397 1291.48 711.319 1232.69 748.469L1233.22 749.314L1233.76 750.159C1293.15 712.629 1316.67 642.563 1285.71 593.561L1284.87 594.095ZM1233.22 749.314L1232.69 748.469C1187.6 776.957 1134.67 778.272 1098.87 755.745L1098.33 756.591L1097.8 757.438C1134.37 780.448 1188.14 778.98 1233.76 750.159L1233.22 749.314ZM1098.33 756.591L1097.97 755.659C1048.95 774.743 996.593 771.594 956.826 742.285L956.232 743.09L955.639 743.895C996.068 773.691 1049.18 776.802 1098.7 757.523L1098.33 756.591ZM956.232 743.09L956.826 742.285C888.664 692.05 882.933 583.585 944.606 499.904L943.801 499.311L942.996 498.718C880.901 582.972 886.302 692.794 955.639 743.895L956.232 743.09Z" fill="black" mask="url(#path-5-inside-2_2087_186)"/>
<path d="M1058.04 612.65L1043.73 622.565L1045.64 625.327C1046.55 624.725 1047.9 623.804 1049.68 622.565C1052.77 620.426 1055.87 618.199 1058.99 615.882L1062.56 621.037C1059.29 623.126 1055.88 625.397 1052.34 627.852C1050.86 628.872 1049.76 629.653 1049.01 630.193L1053.55 636.742L1047.34 641.043C1045.13 637.544 1042.99 634.313 1040.94 631.35C1038.89 628.386 1036.61 625.252 1034.11 621.948L1054.63 607.732L1058.04 612.65ZM1085 614.948C1083.98 614.179 1082.66 613.235 1081.06 612.116L1072.67 617.93L1073.96 622.603L1067.35 627.178L1061.49 602.979L1071.17 596.272L1091.82 610.227L1085 614.948ZM1076.71 609.052C1074.77 607.672 1072.81 606.305 1070.83 604.95L1069.02 603.678C1069.51 605.699 1070.28 608.736 1071.32 612.788L1076.71 609.052ZM1103.66 602.406C1099.7 605.152 1096.2 606.334 1093.16 605.951C1090.11 605.567 1087.51 603.815 1085.35 600.694C1083.17 597.555 1082.39 594.424 1083 591.3C1083.62 588.176 1085.91 585.241 1089.87 582.495C1095.41 578.656 1100.44 577.988 1104.95 580.493C1103.75 582.131 1102.46 584.228 1101.09 586.785C1099.91 586.156 1098.59 585.987 1097.16 586.279C1095.75 586.559 1094.47 587.094 1093.33 587.883C1091.65 589.05 1090.7 590.366 1090.5 591.831C1090.28 593.279 1090.62 594.652 1091.52 595.949C1092.49 597.352 1093.73 598.197 1095.22 598.484C1096.73 598.741 1098.39 598.237 1100.21 596.974C1101.67 595.965 1102.66 594.927 1103.19 593.858C1103.71 592.771 1103.81 591.562 1103.48 590.231C1105.45 590.006 1107.9 589.598 1110.81 589.007C1111.4 591.737 1110.97 594.233 1109.5 596.496C1108.03 598.76 1106.08 600.73 1103.66 602.406ZM1129.91 563.741C1127.1 565.561 1124.39 567.361 1121.78 569.142L1131.29 582.872L1124.72 587.428L1115.2 573.699C1112.6 575.527 1109.97 577.426 1107.32 579.397L1103.49 573.874L1126.08 558.218L1129.91 563.741ZM1154.67 552.349C1155.21 551.789 1155.79 551.296 1156.41 550.871C1157.48 550.129 1158.47 549.712 1159.39 549.619C1160.32 549.495 1161.13 549.611 1161.81 549.966C1162.49 550.303 1163.03 550.769 1163.45 551.366C1164.41 552.751 1164.77 554.25 1164.54 555.864C1164.3 557.46 1163.57 559.053 1162.36 560.643C1161.14 562.216 1159.58 563.664 1157.66 564.989C1152.12 568.828 1147.2 569.384 1142.9 566.656L1144.11 565.267C1145.02 564.251 1145.77 563.368 1146.37 562.617C1146.97 561.837 1147.45 561.098 1147.83 560.399C1148.78 561.032 1149.72 561.317 1150.64 561.253C1151.56 561.16 1152.6 560.712 1153.76 559.91C1154.98 559.06 1155.89 558.227 1156.46 557.412C1157.04 556.597 1157.13 555.908 1156.75 555.347C1156.54 555.049 1156.23 554.924 1155.82 554.973C1155.42 555.022 1154.87 555.245 1154.19 555.642C1153.49 556.021 1152.55 556.618 1151.38 557.432L1149.38 558.817L1146.19 554.214L1147.4 553.376C1148.73 552.452 1149.78 551.647 1150.55 550.958C1151.31 550.252 1151.55 549.706 1151.28 549.32C1150.98 548.882 1150.51 548.689 1149.87 548.742C1149.24 548.765 1148.45 549.105 1147.5 549.761C1146.27 550.612 1145.45 551.559 1145.03 552.602C1144.63 553.633 1144.55 554.776 1144.8 556.032C1142.4 556.578 1140.03 557.429 1137.69 558.583C1137.22 556.106 1137.5 553.749 1138.51 551.512C1139.55 549.262 1141.45 547.183 1144.2 545.276C1145.99 544.036 1147.76 543.161 1149.5 542.651C1151.26 542.11 1152.82 541.973 1154.2 542.238C1155.6 542.491 1156.65 543.126 1157.35 544.143C1157.76 544.739 1158 545.371 1158.04 546.039C1158.08 546.689 1157.84 547.528 1157.33 548.555C1156.81 549.564 1155.92 550.829 1154.67 552.349Z" fill="#272727"/>
<mask id="path-8-inside-3_2087_186" fill="white">
<path d="M798.384 397.232C839.179 403.865 866.2 458.296 869.524 529.883C939.471 555.524 984.655 594.366 978.863 629.986C972.962 666.279 915.81 688.978 839.206 690.394C813.045 747.766 773.947 783.368 736.591 777.294C698.952 771.174 673.038 724.364 666.643 660.933C598.38 635.29 554.545 597.043 560.255 561.926C565.854 527.483 617.614 505.282 688.354 501.898C714.126 434.263 757.308 390.554 798.384 397.232Z"/>
</mask>
<path d="M798.384 397.232C839.179 403.865 866.2 458.296 869.524 529.883C939.471 555.524 984.655 594.366 978.863 629.986C972.962 666.279 915.81 688.978 839.206 690.394C813.045 747.766 773.947 783.368 736.591 777.294C698.952 771.174 673.038 724.364 666.643 660.933C598.38 635.29 554.545 597.043 560.255 561.926C565.854 527.483 617.614 505.282 688.354 501.898C714.126 434.263 757.308 390.554 798.384 397.232Z" fill="#3F6CFF"/>
<path d="M798.384 397.232L798.545 396.245V396.245L798.384 397.232ZM869.524 529.883L868.525 529.93L868.556 530.594L869.18 530.822L869.524 529.883ZM978.863 629.986L979.85 630.147L979.85 630.147L978.863 629.986ZM839.206 690.394L839.187 689.394L838.557 689.406L838.296 689.979L839.206 690.394ZM736.591 777.294L736.431 778.281V778.281L736.591 777.294ZM666.643 660.933L667.638 660.833L667.576 660.215L666.995 659.997L666.643 660.933ZM560.255 561.926L559.267 561.766L559.267 561.766L560.255 561.926ZM688.354 501.898L688.402 502.897L689.055 502.865L689.288 502.254L688.354 501.898ZM798.384 397.232L798.224 398.219C818.196 401.466 834.932 416.435 847.12 439.664C859.304 462.886 866.868 494.237 868.525 529.93L869.524 529.883L870.523 529.837C868.856 493.943 861.248 462.285 848.891 438.735C836.539 415.194 819.368 399.63 798.545 396.245L798.384 397.232ZM869.524 529.883L869.18 530.822C904.079 543.616 932.737 559.681 951.927 576.936C971.145 594.217 980.691 612.516 977.876 629.826L978.863 629.986L979.85 630.147C982.827 611.836 972.677 592.905 953.264 575.449C933.824 557.968 904.916 541.792 869.868 528.944L869.524 529.883ZM978.863 629.986L977.876 629.826C975.009 647.463 959.644 662.009 935.159 672.348C910.713 682.671 877.41 688.688 839.187 689.394L839.206 690.394L839.224 691.394C877.606 690.685 911.181 684.644 935.937 674.19C960.655 663.752 976.817 648.802 979.85 630.147L978.863 629.986ZM839.206 690.394L838.296 689.979C825.256 718.576 809.018 741.687 791.443 756.88C773.867 772.073 755.041 779.281 736.752 776.307L736.591 777.294L736.431 778.281C755.497 781.381 774.899 773.825 792.751 758.393C810.604 742.96 826.995 719.584 840.116 690.809L839.206 690.394ZM736.591 777.294L736.752 776.307C718.324 773.311 702.653 760.338 690.763 740.099C678.873 719.861 670.826 692.451 667.638 660.833L666.643 660.933L665.648 661.033C668.856 692.846 676.962 720.557 689.038 741.112C701.113 761.665 717.22 775.158 736.431 778.281L736.591 777.294ZM666.643 660.933L666.995 659.997C632.937 647.203 605.038 631.287 586.384 614.244C567.705 597.178 558.467 579.152 561.242 562.087L560.255 561.926L559.267 561.766C556.333 579.818 566.158 598.473 585.035 615.72C603.937 632.991 632.087 649.02 666.292 661.869L666.643 660.933ZM560.255 561.926L561.242 562.087C563.963 545.349 577.936 531.396 600.293 521.174C622.622 510.966 653.11 504.585 688.402 502.897L688.354 501.898L688.306 500.899C652.858 502.595 622.097 509.007 599.461 519.355C576.853 529.692 562.146 544.06 559.267 561.766L560.255 561.926ZM688.354 501.898L689.288 502.254C702.138 468.531 719.308 440.833 738.326 422.416C757.351 403.991 778.114 394.95 798.224 398.219L798.384 397.232L798.545 396.245C777.578 392.836 756.212 402.31 736.934 420.979C717.649 439.655 700.341 467.63 687.419 501.542L688.354 501.898Z" fill="black" mask="url(#path-8-inside-3_2087_186)"/>
<path d="M507.335 202.277C507.103 207.872 506.987 213.881 506.987 220.303C506.987 226.726 507.103 232.735 507.335 238.33H495.664V224.822H477.389V238.33H465.719C465.984 231.907 466.116 225.898 466.116 220.303C466.116 214.708 465.984 208.699 465.719 202.277H477.389V215.784H495.664V202.277H507.335ZM542.642 238.33C542.013 236.443 541.169 234.076 540.109 231.229H524.267L521.784 238.33H509.32L523.225 202.277H541.5L555.504 238.33H542.642ZM537.278 223.482C536.02 220.005 534.729 216.529 533.405 213.053L532.213 209.825C531.054 212.838 529.349 217.39 527.098 223.482H537.278ZM580.004 238.827C572.522 238.827 567.01 237.238 563.467 234.059C559.925 230.881 558.154 226.345 558.154 220.452C558.154 214.526 559.925 209.842 563.467 206.398C567.01 202.955 572.522 201.234 580.004 201.234C590.466 201.234 597.468 204.826 601.011 212.01C598.031 213.036 594.538 214.576 590.532 216.628C589.572 214.774 588.049 213.401 585.964 212.507C583.911 211.613 581.809 211.166 579.657 211.166C576.478 211.166 574.111 212.01 572.555 213.698C570.999 215.354 570.221 217.406 570.221 219.856C570.221 222.505 571.049 224.673 572.704 226.362C574.393 228.017 576.958 228.845 580.402 228.845C583.149 228.845 585.335 228.398 586.957 227.504C588.579 226.577 589.771 225.12 590.532 223.134C593.247 224.591 596.723 226.229 600.961 228.05C599.306 232.056 596.541 234.854 592.668 236.443C588.794 238.032 584.573 238.827 580.004 238.827ZM647.66 212.705C642.462 212.54 637.413 212.44 632.513 212.407V238.33H620.098V212.407C615.165 212.44 610.133 212.54 605.001 212.705V202.277H647.66V212.705ZM691.532 202.277C691.301 207.872 691.185 213.881 691.185 220.303C691.185 226.726 691.301 232.735 691.532 238.33H679.813V226.809H672.512C669.367 231.775 667.066 235.615 665.61 238.33H652.102L660.147 227.156C660.313 226.859 660.594 226.445 660.991 225.915C657.581 225.021 655.164 223.581 653.741 221.594C652.35 219.608 651.655 217.175 651.655 214.294C651.655 210.62 652.979 207.706 655.628 205.554C658.276 203.402 662.945 202.326 669.632 202.326H679.813V202.277H691.532ZM679.813 217.522V211.861H673.108C670.261 211.861 668.109 211.944 666.653 212.109C665.196 212.275 664.203 212.556 663.673 212.954C663.143 213.351 662.878 213.914 662.878 214.642C662.878 215.403 663.16 215.983 663.723 216.38C664.285 216.777 665.279 217.075 666.702 217.274C668.159 217.44 670.294 217.522 673.108 217.522H679.813ZM745.563 202.277C745.332 207.872 745.216 213.881 745.216 220.303C745.216 226.726 745.332 232.735 745.563 238.33H733.893V212.308H717.108V238.33H705.438C705.703 231.907 705.835 225.898 705.835 220.303C705.835 214.708 705.703 208.699 705.438 202.277H745.563ZM761.241 229.242C773.822 229.176 782.943 228.994 788.604 228.696C788.372 230.053 788.223 231.46 788.157 232.917C788.124 234.341 788.107 236.145 788.107 238.33H749.521C749.786 231.907 749.918 225.898 749.918 220.303C749.918 214.708 749.786 208.699 749.521 202.277H788.107V211.265H761.241V216.033C762.83 216.066 765.181 216.082 768.293 216.082C773.557 216.082 779.003 215.983 784.631 215.784V224.326C779.003 224.127 773.557 224.028 768.293 224.028C765.181 224.028 762.83 224.044 761.241 224.078V229.242ZM814.437 238.827C806.955 238.827 801.442 237.238 797.9 234.059C794.357 230.881 792.586 226.345 792.586 220.452C792.586 214.526 794.357 209.842 797.9 206.398C801.442 202.955 806.955 201.234 814.437 201.234C824.899 201.234 831.901 204.826 835.443 212.01C832.464 213.036 828.971 214.576 824.965 216.628C824.005 214.774 822.482 213.401 820.396 212.507C818.343 211.613 816.241 211.166 814.089 211.166C810.911 211.166 808.544 212.01 806.988 213.698C805.432 215.354 804.654 217.406 804.654 219.856C804.654 222.505 805.481 224.673 807.137 226.362C808.825 228.017 811.391 228.845 814.834 228.845C817.582 228.845 819.767 228.398 821.389 227.504C823.011 226.577 824.203 225.12 824.965 223.134C827.68 224.591 831.156 226.229 835.394 228.05C833.738 232.056 830.974 234.854 827.1 236.443C823.227 238.032 819.006 238.827 814.437 238.827ZM871.415 221.098C873.369 222.687 874.858 224.458 875.885 226.412C876.944 228.332 877.97 230.699 878.964 233.513C879.791 235.797 880.453 237.403 880.95 238.33H866.35C866.151 237.767 865.886 236.791 865.555 235.4C865.224 233.877 864.86 232.603 864.463 231.576C864.099 230.55 863.569 229.656 862.874 228.895C861.748 227.703 860.341 226.941 858.652 226.61C856.997 226.246 854.713 226.064 851.799 226.064V238.33H839.434C839.699 231.907 839.831 225.898 839.831 220.303C839.831 214.708 839.699 208.699 839.434 202.277H851.799V215.238C852.13 215.271 852.627 215.288 853.289 215.288C858.454 210.189 862.294 205.852 864.81 202.277H880.9L865.456 217.671C867.641 218.532 869.627 219.674 871.415 221.098ZM907.023 238.827C899.441 238.827 893.863 237.188 890.287 233.91C886.711 230.6 884.924 225.965 884.924 220.005C884.924 214.112 886.695 209.51 890.237 206.2C893.813 202.889 899.408 201.234 907.023 201.234C914.67 201.234 920.265 202.889 923.808 206.2C927.383 209.51 929.171 214.112 929.171 220.005C929.171 225.998 927.4 230.633 923.858 233.91C920.315 237.188 914.703 238.827 907.023 238.827ZM907.023 228.696C910.697 228.696 913.346 228.001 914.968 226.61C916.591 225.187 917.402 222.985 917.402 220.005C917.402 217.092 916.591 214.923 914.968 213.5C913.346 212.076 910.697 211.364 907.023 211.364C903.381 211.364 900.749 212.076 899.127 213.5C897.504 214.923 896.693 217.092 896.693 220.005C896.693 222.952 897.504 225.137 899.127 226.561C900.749 227.984 903.381 228.696 907.023 228.696ZM962.23 220.403C969.779 220.403 973.553 222.803 973.553 227.603C973.553 229.855 973.04 231.775 972.013 233.364C970.987 234.92 969.15 236.145 966.501 237.039C963.853 237.9 960.178 238.33 955.476 238.33H933.129C933.394 231.907 933.527 225.898 933.527 220.303C933.527 214.708 933.394 208.699 933.129 202.277H944.799V202.326H955.377C959.482 202.326 962.71 202.674 965.061 203.369C967.445 204.031 969.117 205.008 970.077 206.299C971.07 207.59 971.566 209.229 971.566 211.215C971.566 213.235 970.855 215.039 969.431 216.628C968.041 218.184 965.64 219.443 962.23 220.403ZM944.799 211.364V215.983H954.334C956.387 215.983 957.811 215.801 958.605 215.437C959.433 215.072 959.847 214.41 959.847 213.45C959.847 212.689 959.416 212.159 958.555 211.861C957.728 211.53 956.321 211.364 954.334 211.364H944.799ZM954.334 229.242C956.056 229.242 957.364 229.176 958.257 229.044C959.184 228.878 959.847 228.613 960.244 228.249C960.641 227.852 960.84 227.322 960.84 226.66C960.84 225.799 960.36 225.187 959.4 224.822C958.473 224.425 956.784 224.226 954.334 224.226H944.799V229.242H954.334ZM1008.84 238.33C1008.21 236.443 1007.37 234.076 1006.31 231.229H990.465L987.982 238.33H975.517L989.422 202.277H1007.7L1021.7 238.33H1008.84ZM1003.48 223.482C1002.22 220.005 1000.93 216.529 999.603 213.053L998.411 209.825C997.252 212.838 995.547 217.39 993.296 223.482H1003.48ZM397.458 271.098C399.411 272.687 400.901 274.458 401.928 276.412C402.987 278.332 404.013 280.699 405.007 283.513C405.834 285.797 406.496 287.403 406.993 288.33H392.393C392.194 287.767 391.929 286.791 391.598 285.4C391.267 283.877 390.903 282.603 390.506 281.576C390.141 280.55 389.612 279.656 388.917 278.895C387.791 277.703 386.384 276.941 384.695 276.61C383.04 276.246 380.756 276.064 377.842 276.064V288.33H365.477C365.742 281.907 365.874 275.898 365.874 270.303C365.874 264.708 365.742 258.699 365.477 252.277H377.842V265.238C378.173 265.271 378.67 265.288 379.332 265.288C384.497 260.189 388.337 255.852 390.853 252.277H406.943L391.499 267.671C393.684 268.532 395.67 269.674 397.458 271.098ZM433.065 288.827C425.484 288.827 419.905 287.188 416.33 283.91C412.754 280.6 410.967 275.965 410.967 270.005C410.967 264.112 412.738 259.51 416.28 256.2C419.856 252.889 425.451 251.234 433.065 251.234C440.713 251.234 446.308 252.889 449.851 256.2C453.426 259.51 455.214 264.112 455.214 270.005C455.214 275.998 453.443 280.633 449.9 283.91C446.358 287.188 440.746 288.827 433.065 288.827ZM433.065 278.696C436.74 278.696 439.389 278.001 441.011 276.61C442.633 275.187 443.445 272.985 443.445 270.005C443.445 267.092 442.633 264.923 441.011 263.5C439.389 262.076 436.74 261.364 433.065 261.364C429.424 261.364 426.792 262.076 425.169 263.5C423.547 264.923 422.736 267.092 422.736 270.005C422.736 272.952 423.547 275.137 425.169 276.561C426.792 277.984 429.424 278.696 433.065 278.696ZM505.605 252.277L509.478 288.33H496.616L495.822 262.606L490.856 288.33H477.845L472.779 262.805L472.034 288.33H459.172L463.046 252.277H479.93L484.251 275.766L488.025 252.277H505.605ZM559.872 252.277L563.746 288.33H550.884L550.089 262.606L545.123 288.33H532.112L527.047 262.805L526.302 288.33H513.44L517.313 252.277H534.198L538.518 275.766L542.293 252.277H559.872ZM605.201 252.277C605.069 252.641 604.903 253.055 604.705 253.518C604.506 253.948 604.307 254.445 604.109 255.008C602.288 259.51 600.599 263.566 599.043 267.175C597.52 270.75 595.699 274.822 593.581 279.391C591.727 283.364 589.012 286.542 585.436 288.926C581.894 291.343 577.424 292.502 572.028 292.402C571.333 289.522 570.77 287.353 570.34 285.897C569.942 284.407 569.396 282.884 568.701 281.328C570.654 281.758 572.458 281.974 574.114 281.974C575.736 281.974 577.193 281.758 578.484 281.328C576.1 275.203 571.846 265.519 565.721 252.277H578.087L585.983 270.85L587.373 267.522C590.816 259.345 592.753 254.263 593.183 252.277H605.201ZM649.43 252.277C649.198 257.872 649.082 263.881 649.082 270.303C649.082 276.726 649.198 282.735 649.43 288.33H637.759V274.822H619.484V288.33H607.814C608.079 281.907 608.211 275.898 608.211 270.303C608.211 264.708 608.079 258.699 607.814 252.277H619.484V265.784H637.759V252.277H649.43ZM665.568 252.326L664.724 280.186L676.791 252.326H695.066C694.834 257.921 694.719 263.914 694.719 270.303C694.719 276.726 694.834 282.735 695.066 288.33H682.303L683.197 261.215L671.179 288.33H653.401C653.666 281.907 653.798 275.898 653.798 270.303C653.798 264.741 653.666 258.749 653.401 252.326H665.568ZM731.018 271.098C732.971 272.687 734.461 274.458 735.487 276.412C736.546 278.332 737.573 280.699 738.566 283.513C739.394 285.797 740.056 287.403 740.552 288.33H725.952C725.754 287.767 725.489 286.791 725.158 285.4C724.827 283.877 724.462 282.603 724.065 281.576C723.701 280.55 723.171 279.656 722.476 278.895C721.35 277.703 719.943 276.941 718.255 276.61C716.599 276.246 714.315 276.064 711.402 276.064V288.33H699.036C699.301 281.907 699.434 275.898 699.434 270.303C699.434 264.708 699.301 258.699 699.036 252.277H711.402V265.238C711.733 265.271 712.229 265.288 712.892 265.288C718.056 260.189 721.897 255.852 724.413 252.277H740.503L725.058 267.671C727.243 268.532 729.23 269.674 731.018 271.098ZM775.862 288.33C775.233 286.443 774.389 284.076 773.329 281.229H757.487L755.004 288.33H742.54L756.445 252.277H774.72L788.724 288.33H775.862ZM770.498 273.482C769.24 270.005 767.949 266.529 766.625 263.053L765.433 259.825C764.274 262.838 762.569 267.39 760.318 273.482H770.498ZM803.541 252.326L802.696 280.186L814.764 252.326H833.039C832.807 257.921 832.691 263.914 832.691 270.303C832.691 276.726 832.807 282.735 833.039 288.33H820.276L821.17 261.215L809.152 288.33H791.374C791.639 281.907 791.771 275.898 791.771 270.303C791.771 264.741 791.639 258.749 791.374 252.326H803.541ZM879.171 278.199V298.014H868.394V288.33H837.009C837.274 281.907 837.406 275.898 837.406 270.303C837.406 264.708 837.274 258.699 837.009 252.277H848.679V278.299H865.464V252.277H877.135C876.903 257.938 876.787 263.98 876.787 270.403C876.787 273.879 876.804 276.478 876.837 278.199H879.171ZM904.743 288.827C897.162 288.827 891.583 287.188 888.008 283.91C884.432 280.6 882.644 275.965 882.644 270.005C882.644 264.112 884.415 259.51 887.958 256.2C891.533 252.889 897.129 251.234 904.743 251.234C912.391 251.234 917.986 252.889 921.528 256.2C925.104 259.51 926.892 264.112 926.892 270.005C926.892 275.998 925.121 280.633 921.578 283.91C918.036 287.188 912.424 288.827 904.743 288.827ZM904.743 278.696C908.418 278.696 911.067 278.001 912.689 276.61C914.311 275.187 915.122 272.985 915.122 270.005C915.122 267.092 914.311 264.923 912.689 263.5C911.067 262.076 908.418 261.364 904.743 261.364C901.101 261.364 898.469 262.076 896.847 263.5C895.225 264.923 894.414 267.092 894.414 270.005C894.414 272.952 895.225 275.137 896.847 276.561C898.469 277.984 901.101 278.696 904.743 278.696ZM972.465 252.277C972.234 257.872 972.118 263.881 972.118 270.303C972.118 276.726 972.234 282.735 972.465 288.33H960.795V274.822H942.52V288.33H930.85C931.115 281.907 931.247 275.898 931.247 270.303C931.247 264.708 931.115 258.699 930.85 252.277H942.52V265.784H960.795V252.277H972.465ZM1018.05 252.277C1017.82 257.872 1017.7 263.881 1017.7 270.303C1017.7 276.726 1017.82 282.735 1018.05 288.33H1006.38V274.822H988.107V288.33H976.437C976.702 281.907 976.834 275.898 976.834 270.303C976.834 264.708 976.702 258.699 976.437 252.277H988.107V265.784H1006.38V252.277H1018.05ZM1074.91 268.466C1074.88 270.452 1074.86 273.498 1074.86 277.603C1074.86 282.536 1074.9 286.112 1074.96 288.33H1063.24L1063.29 282.718C1063.36 276.561 1063.39 271.81 1063.39 268.466C1063.39 265.288 1063.36 260.785 1063.29 254.958L1063.24 249.595H1074.96C1074.93 250.654 1074.91 252.31 1074.91 254.561V263.847V268.466ZM1043.08 261.017C1047.62 261.017 1051.17 261.596 1053.76 262.755C1056.34 263.881 1058.14 265.47 1059.17 267.522C1060.2 269.542 1060.71 272.008 1060.71 274.922C1060.71 279.159 1059.42 282.454 1056.84 284.804C1054.25 287.122 1049.67 288.28 1043.08 288.28H1034.24V288.33H1022.02C1022.29 281.907 1022.42 275.898 1022.42 270.303C1022.42 264.708 1022.29 258.699 1022.02 252.277H1034.24V261.017H1043.08ZM1041.09 278.448C1043.41 278.448 1045.15 278.348 1046.31 278.15C1047.5 277.918 1048.33 277.537 1048.79 277.007C1049.25 276.478 1049.49 275.667 1049.49 274.574C1049.49 273.482 1049.24 272.654 1048.74 272.091C1048.24 271.528 1047.4 271.148 1046.21 270.949C1045.05 270.717 1043.34 270.601 1041.09 270.601H1034.24V278.448H1041.09ZM1099.77 250.985C1098.21 250.985 1096.77 250.638 1095.45 249.943C1094.15 249.247 1093.13 248.254 1092.37 246.963C1091.61 245.672 1091.22 244.165 1091.22 242.444H1096.14C1096.14 243.735 1096.47 244.695 1097.13 245.324C1097.83 245.92 1098.71 246.218 1099.77 246.218C1100.83 246.218 1101.69 245.92 1102.35 245.324C1103.04 244.695 1103.39 243.735 1103.39 242.444H1108.31C1108.31 244.165 1107.93 245.672 1107.17 246.963C1106.4 248.254 1105.36 249.247 1104.04 249.943C1102.75 250.638 1101.32 250.985 1099.77 250.985ZM1091.13 252.326L1090.28 280.186L1102.35 252.326H1120.62C1120.39 257.921 1120.28 263.914 1120.28 270.303C1120.28 276.726 1120.39 282.735 1120.62 288.33H1107.86L1108.75 261.215L1096.74 288.33H1078.96C1079.22 281.907 1079.36 275.898 1079.36 270.303C1079.36 264.741 1079.22 258.749 1078.96 252.326H1091.13ZM605.541 329.491H607.578V346.524H595.808V339.323H573.659V346.673H561.89V329.491H564.373C565.796 329.226 566.889 328.646 567.65 327.752C568.412 326.859 568.975 325.435 569.339 323.482C569.637 321.859 569.786 318.168 569.786 312.407L569.736 302.277L605.541 302.326V329.491ZM580.91 327.355C580.711 328.282 580.529 328.994 580.364 329.491H592.977V312.01H581.853L581.804 314.89C581.804 317.406 581.738 319.625 581.605 321.545C581.506 323.432 581.274 325.369 580.91 327.355ZM623.715 302.326L622.871 330.186L634.939 302.326H653.214C652.982 307.921 652.866 313.914 652.866 320.303C652.866 326.726 652.982 332.735 653.214 338.33H640.451L641.345 311.215L629.327 338.33H611.548C611.813 331.907 611.946 325.898 611.946 320.303C611.946 314.741 611.813 308.749 611.548 302.326H623.715ZM684.894 320.055C686.086 319.823 687.261 319.707 688.42 319.707C690.44 319.707 692.078 320.055 693.337 320.75C694.628 321.412 695.555 322.273 696.118 323.333C696.68 324.359 696.962 325.435 696.962 326.561C696.962 329.176 696.101 331.411 694.379 333.265C692.658 335.086 690.324 336.476 687.377 337.436C684.431 338.363 681.153 338.827 677.544 338.827C667.083 338.827 660.312 335.185 657.233 327.901L660.014 327.206C662.067 326.71 663.805 326.246 665.229 325.816C666.685 325.352 667.96 324.839 669.053 324.276C669.715 325.932 670.658 327.123 671.883 327.852C673.141 328.547 674.863 328.895 677.048 328.895C679.365 328.895 681.252 328.63 682.709 328.1C684.166 327.57 684.894 326.776 684.894 325.716C684.894 325.153 684.613 324.723 684.05 324.425C683.487 324.127 682.593 323.929 681.368 323.829C680.143 323.697 678.422 323.631 676.204 323.631H672.429V314.94H674.714C677.23 314.94 679.283 314.841 680.872 314.642C682.461 314.41 683.255 313.93 683.255 313.202C683.255 312.374 682.825 311.712 681.964 311.215C681.137 310.686 679.829 310.421 678.041 310.421C675.724 310.421 673.837 310.901 672.38 311.861C670.956 312.821 669.847 314.212 669.053 316.033C665.51 314.609 661.736 313.599 657.73 313.003C659.319 309.428 661.752 306.663 665.03 304.71C668.341 302.757 672.595 301.78 677.793 301.78C681.17 301.78 684.199 302.227 686.881 303.121C689.595 303.982 691.714 305.19 693.237 306.746C694.793 308.302 695.571 310.04 695.571 311.96C695.571 313.086 695.306 314.096 694.777 314.99C694.247 315.85 693.204 316.711 691.648 317.572C690.092 318.4 687.841 319.227 684.894 320.055ZM732.263 338.33C731.634 336.443 730.79 334.076 729.731 331.229H713.889L711.406 338.33H698.941L712.846 302.277H731.121L745.125 338.33H732.263ZM726.9 323.482C725.642 320.005 724.351 316.529 723.027 313.053L721.835 309.825C720.676 312.838 718.971 317.39 716.72 323.482H726.9ZM768.583 300.985C767.027 300.985 765.587 300.638 764.263 299.943C762.971 299.247 761.945 298.254 761.184 296.963C760.422 295.672 760.041 294.165 760.041 292.444H764.958C764.958 293.735 765.289 294.695 765.951 295.324C766.646 295.92 767.524 296.218 768.583 296.218C769.642 296.218 770.503 295.92 771.165 295.324C771.861 294.695 772.208 293.735 772.208 292.444H777.125C777.125 294.165 776.744 295.672 775.982 296.963C775.221 298.254 774.178 299.247 772.854 299.943C771.563 300.638 770.139 300.985 768.583 300.985ZM759.942 302.326L759.098 330.186L771.165 302.326H789.44C789.209 307.921 789.093 313.914 789.093 320.303C789.093 326.726 789.209 332.735 789.44 338.33H776.678L777.572 311.215L765.554 338.33H747.775C748.04 331.907 748.173 325.898 748.173 320.303C748.173 314.741 748.04 308.749 747.775 302.326H759.942ZM835.026 302.277C834.794 307.872 834.678 313.881 834.678 320.303C834.678 326.726 834.794 332.735 835.026 338.33H823.356V324.822H805.081V338.33H793.411C793.675 331.907 793.808 325.898 793.808 320.303C793.808 314.708 793.675 308.699 793.411 302.277H805.081V315.784H823.356V302.277H835.026ZM850.717 329.242C863.298 329.176 872.419 328.994 878.08 328.696C877.848 330.053 877.699 331.46 877.633 332.917C877.6 334.341 877.584 336.145 877.584 338.33H838.997C839.262 331.907 839.395 325.898 839.395 320.303C839.395 314.708 839.262 308.699 838.997 302.277H877.584V311.265H850.717V316.033C852.306 316.066 854.657 316.082 857.769 316.082C863.033 316.082 868.479 315.983 874.107 315.784V324.326C868.479 324.127 863.033 324.028 857.769 324.028C854.657 324.028 852.306 324.044 850.717 324.078V329.242ZM904.608 302.326C911.197 302.326 915.782 303.502 918.364 305.852C920.947 308.17 922.238 311.447 922.238 315.685C922.238 318.598 921.725 321.081 920.698 323.134C919.672 325.153 917.868 326.743 915.285 327.901C912.703 329.027 909.144 329.59 904.608 329.59H894.279V338.33H882.062C882.327 331.907 882.46 325.898 882.46 320.303C882.46 314.708 882.327 308.699 882.062 302.277H894.279V302.326H904.608ZM901.132 320.005C903.88 320.005 905.932 319.906 907.29 319.707C908.68 319.476 909.64 319.078 910.17 318.516C910.733 317.953 911.014 317.125 911.014 316.033C911.014 314.94 910.75 314.129 910.22 313.599C909.723 313.036 908.78 312.656 907.389 312.457C906.032 312.258 903.946 312.159 901.132 312.159H894.279V320.005H901.132Z" fill="#FF2748"/>
</g>
<defs>
<clipPath id="clip0_2087_186">
<rect width="1465" height="707" fill="white"/>
</clipPath>
</defs>
</svg>
