<svg width="162" height="36" viewBox="0 0 162 36" fill="none" xmlns="http://www.w3.org/2000/svg">
<circle cx="17.7305" cy="17.7305" r="17.7305" fill="#F42400"/>
<path d="M31.3705 17.7301C31.3705 17.7301 25.2639 24.1282 17.7311 24.1282C10.1983 24.1282 4.0918 17.7301 4.0918 17.7301C4.0918 17.7301 10.1983 11.332 17.7311 11.332C25.2639 11.332 31.3705 17.7301 31.3705 17.7301Z" fill="white"/>
<ellipse cx="17.7304" cy="17.7308" rx="6.414" ry="6.17412" fill="black"/>
<path d="M47.079 22.3849C46.557 22.3849 46.0918 22.2944 45.6834 22.1133C45.275 21.9286 44.9518 21.657 44.7139 21.2983C44.4795 20.9361 44.3623 20.4851 44.3623 19.9453C44.3623 19.4908 44.4458 19.109 44.6127 18.8001C44.7796 18.4911 45.0069 18.2425 45.2945 18.0543C45.5822 17.8661 45.9089 17.7241 46.2746 17.6282C46.644 17.5323 47.031 17.4648 47.4359 17.4258C47.9117 17.3761 48.2952 17.3299 48.5864 17.2873C48.8776 17.2411 49.0889 17.1737 49.2203 17.0849C49.3517 16.9961 49.4174 16.8647 49.4174 16.6907V16.6587C49.4174 16.3214 49.3109 16.0604 49.0978 15.8757C48.8883 15.6911 48.59 15.5987 48.2029 15.5987C47.7945 15.5987 47.4696 15.6893 47.2281 15.8704C46.9866 16.0479 46.8268 16.2717 46.7487 16.5415L44.65 16.3711C44.7565 15.8739 44.966 15.4442 45.2785 15.082C45.591 14.7163 45.9941 14.4357 46.4877 14.2404C46.9849 14.0415 47.5601 13.9421 48.2136 13.9421C48.6681 13.9421 49.1031 13.9954 49.5186 14.1019C49.9376 14.2085 50.3087 14.3736 50.6319 14.5973C50.9586 14.821 51.216 15.1087 51.4043 15.4602C51.5925 15.8082 51.6866 16.2255 51.6866 16.712V22.2305H49.5346V21.0959H49.4707C49.3393 21.3516 49.1635 21.5771 48.9433 21.7724C48.7231 21.9641 48.4586 22.1151 48.1496 22.2251C47.8407 22.3317 47.4838 22.3849 47.079 22.3849ZM47.7288 20.8189C48.0626 20.8189 48.3574 20.7532 48.6131 20.6218C48.8687 20.4869 49.0694 20.3058 49.215 20.0785C49.3606 19.8512 49.4334 19.5937 49.4334 19.3061V18.4379C49.3623 18.484 49.2647 18.5266 49.1404 18.5657C49.0197 18.6012 48.8829 18.6349 48.7302 18.6669C48.5775 18.6953 48.4248 18.7219 48.2722 18.7468C48.1195 18.7681 47.981 18.7876 47.8567 18.8054C47.5903 18.8445 47.3577 18.9066 47.1589 18.9918C46.96 19.0771 46.8055 19.1925 46.6954 19.3381C46.5854 19.4801 46.5303 19.6577 46.5303 19.8707C46.5303 20.1797 46.6422 20.4158 46.8659 20.5792C47.0932 20.739 47.3808 20.8189 47.7288 20.8189ZM55.7162 17.5004V22.2305H53.447V14.0487H55.6097V15.4922H55.7056C55.8867 15.0163 56.1903 14.6399 56.6164 14.3629C57.0426 14.0824 57.5593 13.9421 58.1665 13.9421C58.7347 13.9421 59.2301 14.0664 59.6527 14.315C60.0752 14.5636 60.4037 14.9187 60.6381 15.3803C60.8725 15.8384 60.9897 16.3853 60.9897 17.021V22.2305H58.7205V17.4258C58.724 16.9251 58.5962 16.5344 58.337 16.2539C58.0777 15.9698 57.7208 15.8278 57.2663 15.8278C56.9609 15.8278 56.691 15.8935 56.4566 16.0249C56.2258 16.1562 56.0447 16.348 55.9133 16.6001C55.7855 16.8487 55.7198 17.1488 55.7162 17.5004ZM65.1112 22.3849C64.5892 22.3849 64.124 22.2944 63.7156 22.1133C63.3072 21.9286 62.9841 21.657 62.7461 21.2983C62.5118 20.9361 62.3946 20.4851 62.3946 19.9453C62.3946 19.4908 62.478 19.109 62.6449 18.8001C62.8118 18.4911 63.0391 18.2425 63.3267 18.0543C63.6144 17.8661 63.9411 17.7241 64.3069 17.6282C64.6762 17.5323 65.0633 17.4648 65.4681 17.4258C65.9439 17.3761 66.3275 17.3299 66.6187 17.2873C66.9098 17.2411 67.1211 17.1737 67.2525 17.0849C67.3839 16.9961 67.4496 16.8647 67.4496 16.6907V16.6587C67.4496 16.3214 67.3431 16.0604 67.13 15.8757C66.9205 15.6911 66.6222 15.5987 66.2351 15.5987C65.8267 15.5987 65.5018 15.6893 65.2603 15.8704C65.0189 16.0479 64.8591 16.2717 64.7809 16.5415L62.6822 16.3711C62.7888 15.8739 62.9983 15.4442 63.3108 15.082C63.6233 14.7163 64.0263 14.4357 64.5199 14.2404C65.0171 14.0415 65.5924 13.9421 66.2458 13.9421C66.7003 13.9421 67.1353 13.9954 67.5508 14.1019C67.9699 14.2085 68.341 14.3736 68.6641 14.5973C68.9908 14.821 69.2483 15.1087 69.4365 15.4602C69.6247 15.8082 69.7188 16.2255 69.7188 16.712V22.2305H67.5668V21.0959H67.5029C67.3715 21.3516 67.1957 21.5771 66.9755 21.7724C66.7554 21.9641 66.4908 22.1151 66.1819 22.2251C65.8729 22.3317 65.516 22.3849 65.1112 22.3849ZM65.7611 20.8189C66.0949 20.8189 66.3896 20.7532 66.6453 20.6218C66.901 20.4869 67.1016 20.3058 67.2472 20.0785C67.3928 19.8512 67.4656 19.5937 67.4656 19.3061V18.4379C67.3946 18.484 67.2969 18.5266 67.1726 18.5657C67.0519 18.6012 66.9152 18.6349 66.7625 18.6669C66.6098 18.6953 66.4571 18.7219 66.3044 18.7468C66.1517 18.7681 66.0132 18.7876 65.8889 18.8054C65.6226 18.8445 65.39 18.9066 65.1911 18.9918C64.9922 19.0771 64.8378 19.1925 64.7277 19.3381C64.6176 19.4801 64.5625 19.6577 64.5625 19.8707C64.5625 20.1797 64.6744 20.4158 64.8981 20.5792C65.1254 20.739 65.413 20.8189 65.7611 20.8189ZM78.2868 16.3817L76.2094 16.5096C76.1739 16.332 76.0975 16.1722 75.9803 16.0302C75.8631 15.8846 75.7087 15.7692 75.5169 15.6839C75.3287 15.5952 75.1032 15.5508 74.8404 15.5508C74.4889 15.5508 74.1923 15.6254 73.9509 15.7745C73.7094 15.9201 73.5886 16.1154 73.5886 16.3604C73.5886 16.5558 73.6668 16.7209 73.823 16.8558C73.9793 16.9908 74.2474 17.0991 74.6274 17.1808L76.1082 17.479C76.9036 17.6424 77.4967 17.9052 77.8873 18.2674C78.2779 18.6296 78.4732 19.1055 78.4732 19.695C78.4732 20.2312 78.3152 20.7017 77.9992 21.1065C77.6867 21.5114 77.257 21.8274 76.7101 22.0547C76.1668 22.2784 75.54 22.3903 74.8298 22.3903C73.7467 22.3903 72.8837 22.1648 72.241 21.7138C71.6018 21.2592 71.2271 20.6413 71.1171 19.8601L73.3489 19.7429C73.4164 20.0732 73.5798 20.3253 73.839 20.4993C74.0982 20.6697 74.4303 20.755 74.8351 20.755C75.2328 20.755 75.5524 20.6786 75.7939 20.5259C76.0389 20.3697 76.1632 20.169 76.1668 19.924C76.1632 19.718 76.0762 19.5494 75.9058 19.418C75.7353 19.283 75.4725 19.18 75.1174 19.109L73.7005 18.8267C72.9015 18.6669 72.3067 18.3899 71.9161 17.9957C71.529 17.6016 71.3354 17.0991 71.3354 16.4883C71.3354 15.9627 71.4775 15.5099 71.7616 15.13C72.0492 14.75 72.4523 14.457 72.9707 14.2511C73.4928 14.0451 74.1036 13.9421 74.8031 13.9421C75.8365 13.9421 76.6497 14.1605 77.2428 14.5973C77.8394 15.0341 78.1874 15.6289 78.2868 16.3817ZM84.254 14.0487V15.7532H79.3268V14.0487H84.254ZM80.4454 12.0884H82.7146V19.7163C82.7146 19.9258 82.7466 20.0891 82.8105 20.2063C82.8744 20.32 82.9632 20.3999 83.0768 20.446C83.194 20.4922 83.329 20.5153 83.4817 20.5153C83.5882 20.5153 83.6947 20.5064 83.8013 20.4886C83.9078 20.4673 83.9895 20.4513 84.0463 20.4407L84.4032 22.1293C84.2896 22.1648 84.1297 22.2056 83.9238 22.2518C83.7178 22.3015 83.4675 22.3317 83.1727 22.3423C82.6258 22.3636 82.1464 22.2908 81.7345 22.1239C81.3261 21.957 81.0083 21.6978 80.781 21.3462C80.5538 20.9947 80.4419 20.5508 80.4454 20.0146V12.0884ZM88.0653 22.3849C87.5433 22.3849 87.0781 22.2944 86.6697 22.1133C86.2613 21.9286 85.9382 21.657 85.7002 21.2983C85.4659 20.9361 85.3487 20.4851 85.3487 19.9453C85.3487 19.4908 85.4321 19.109 85.599 18.8001C85.7659 18.4911 85.9932 18.2425 86.2809 18.0543C86.5685 17.8661 86.8952 17.7241 87.261 17.6282C87.6303 17.5323 88.0174 17.4648 88.4222 17.4258C88.898 17.3761 89.2816 17.3299 89.5728 17.2873C89.8639 17.2411 90.0752 17.1737 90.2066 17.0849C90.338 16.9961 90.4037 16.8647 90.4037 16.6907V16.6587C90.4037 16.3214 90.2972 16.0604 90.0841 15.8757C89.8746 15.6911 89.5763 15.5987 89.1892 15.5987C88.7809 15.5987 88.4559 15.6893 88.2144 15.8704C87.973 16.0479 87.8132 16.2717 87.735 16.5415L85.6363 16.3711C85.7429 15.8739 85.9524 15.4442 86.2649 15.082C86.5774 14.7163 86.9804 14.4357 87.474 14.2404C87.9712 14.0415 88.5465 13.9421 89.1999 13.9421C89.6544 13.9421 90.0894 13.9954 90.5049 14.1019C90.924 14.2085 91.2951 14.3736 91.6182 14.5973C91.9449 14.821 92.2024 15.1087 92.3906 15.4602C92.5788 15.8082 92.6729 16.2255 92.6729 16.712V22.2305H90.5209V21.0959H90.457C90.3256 21.3516 90.1498 21.5771 89.9296 21.7724C89.7095 21.9641 89.4449 22.1151 89.136 22.2251C88.827 22.3317 88.4701 22.3849 88.0653 22.3849ZM88.7152 20.8189C89.049 20.8189 89.3437 20.7532 89.5994 20.6218C89.8551 20.4869 90.0557 20.3058 90.2013 20.0785C90.3469 19.8512 90.4197 19.5937 90.4197 19.3061V18.4379C90.3487 18.484 90.251 18.5266 90.1267 18.5657C90.006 18.6012 89.8693 18.6349 89.7166 18.6669C89.5639 18.6953 89.4112 18.7219 89.2585 18.7468C89.1058 18.7681 88.9673 18.7876 88.843 18.8054C88.5767 18.8445 88.3441 18.9066 88.1452 18.9918C87.9463 19.0771 87.7919 19.1925 87.6818 19.3381C87.5717 19.4801 87.5166 19.6577 87.5166 19.8707C87.5166 20.1797 87.6285 20.4158 87.8522 20.5792C88.0795 20.739 88.3671 20.8189 88.7152 20.8189ZM101.241 16.3817L99.1635 16.5096C99.128 16.332 99.0516 16.1722 98.9344 16.0302C98.8172 15.8846 98.6628 15.7692 98.471 15.6839C98.2828 15.5952 98.0573 15.5508 97.7945 15.5508C97.443 15.5508 97.1464 15.6254 96.905 15.7745C96.6635 15.9201 96.5427 16.1154 96.5427 16.3604C96.5427 16.5558 96.6209 16.7209 96.7771 16.8558C96.9334 16.9908 97.2015 17.0991 97.5815 17.1808L99.0623 17.479C99.8577 17.6424 100.451 17.9052 100.841 18.2674C101.232 18.6296 101.427 19.1055 101.427 19.695C101.427 20.2312 101.269 20.7017 100.953 21.1065C100.641 21.5114 100.211 21.8274 99.6642 22.0547C99.1209 22.2784 98.4941 22.3903 97.7839 22.3903C96.7008 22.3903 95.8378 22.1648 95.1951 21.7138C94.5559 21.2592 94.1812 20.6413 94.0712 19.8601L96.303 19.7429C96.3705 20.0732 96.5339 20.3253 96.7931 20.4993C97.0523 20.6697 97.3844 20.755 97.7892 20.755C98.1869 20.755 98.5065 20.6786 98.748 20.5259C98.993 20.3697 99.1173 20.169 99.1209 19.924C99.1173 19.718 99.0303 19.5494 98.8599 19.418C98.6894 19.283 98.4266 19.18 98.0715 19.109L96.6546 18.8267C95.8556 18.6669 95.2608 18.3899 94.8702 17.9957C94.4831 17.6016 94.2896 17.0991 94.2896 16.4883C94.2896 15.9627 94.4316 15.5099 94.7157 15.13C95.0033 14.75 95.4064 14.457 95.9248 14.2511C96.4469 14.0451 97.0577 13.9421 97.7572 13.9421C98.7906 13.9421 99.6038 14.1605 100.197 14.5973C100.793 15.0341 101.141 15.6289 101.241 16.3817ZM102.856 22.2305V14.0487H105.125V22.2305H102.856ZM103.996 12.994C103.659 12.994 103.369 12.8821 103.128 12.6584C102.89 12.4311 102.771 12.1594 102.771 11.8434C102.771 11.5309 102.89 11.2628 103.128 11.0391C103.369 10.8118 103.659 10.6982 103.996 10.6982C104.333 10.6982 104.621 10.8118 104.859 11.0391C105.101 11.2628 105.221 11.5309 105.221 11.8434C105.221 12.1594 105.101 12.4311 104.859 12.6584C104.621 12.8821 104.333 12.994 103.996 12.994ZM109.276 22.3849C108.754 22.3849 108.289 22.2944 107.881 22.1133C107.472 21.9286 107.149 21.657 106.911 21.2983C106.677 20.9361 106.56 20.4851 106.56 19.9453C106.56 19.4908 106.643 19.109 106.81 18.8001C106.977 18.4911 107.204 18.2425 107.492 18.0543C107.779 17.8661 108.106 17.7241 108.472 17.6282C108.841 17.5323 109.228 17.4648 109.633 17.4258C110.109 17.3761 110.492 17.3299 110.784 17.2873C111.075 17.2411 111.286 17.1737 111.418 17.0849C111.549 16.9961 111.615 16.8647 111.615 16.6907V16.6587C111.615 16.3214 111.508 16.0604 111.295 15.8757C111.086 15.6911 110.787 15.5987 110.4 15.5987C109.992 15.5987 109.667 15.6893 109.425 15.8704C109.184 16.0479 109.024 16.2717 108.946 16.5415L106.847 16.3711C106.954 15.8739 107.163 15.4442 107.476 15.082C107.788 14.7163 108.191 14.4357 108.685 14.2404C109.182 14.0415 109.757 13.9421 110.411 13.9421C110.865 13.9421 111.3 13.9954 111.716 14.1019C112.135 14.2085 112.506 14.3736 112.829 14.5973C113.156 14.821 113.413 15.1087 113.602 15.4602C113.79 15.8082 113.884 16.2255 113.884 16.712V22.2305H111.732V21.0959H111.668C111.537 21.3516 111.361 21.5771 111.141 21.7724C110.92 21.9641 110.656 22.1151 110.347 22.2251C110.038 22.3317 109.681 22.3849 109.276 22.3849ZM109.926 20.8189C110.26 20.8189 110.555 20.7532 110.81 20.6218C111.066 20.4869 111.267 20.3058 111.412 20.0785C111.558 19.8512 111.631 19.5937 111.631 19.3061V18.4379C111.56 18.484 111.462 18.5266 111.338 18.5657C111.217 18.6012 111.08 18.6349 110.928 18.6669C110.775 18.6953 110.622 18.7219 110.469 18.7468C110.317 18.7681 110.178 18.7876 110.054 18.8054C109.788 18.8445 109.555 18.9066 109.356 18.9918C109.157 19.0771 109.003 19.1925 108.893 19.3381C108.783 19.4801 108.728 19.6577 108.728 19.8707C108.728 20.1797 108.839 20.4158 109.063 20.5792C109.29 20.739 109.578 20.8189 109.926 20.8189ZM117.977 22.3849C117.455 22.3849 116.99 22.2944 116.582 22.1133C116.173 21.9286 115.85 21.657 115.612 21.2983C115.378 20.9361 115.261 20.4851 115.261 19.9453C115.261 19.4908 115.344 19.109 115.511 18.8001C115.678 18.4911 115.905 18.2425 116.193 18.0543C116.481 17.8661 116.807 17.7241 117.173 17.6282C117.542 17.5323 117.929 17.4648 118.334 17.4258C118.81 17.3761 119.194 17.3299 119.485 17.2873C119.776 17.2411 119.987 17.1737 120.119 17.0849C120.25 16.9961 120.316 16.8647 120.316 16.6907V16.6587C120.316 16.3214 120.209 16.0604 119.996 15.8757C119.787 15.6911 119.488 15.5987 119.101 15.5987C118.693 15.5987 118.368 15.6893 118.127 15.8704C117.885 16.0479 117.725 16.2717 117.647 16.5415L115.548 16.3711C115.655 15.8739 115.864 15.4442 116.177 15.082C116.489 14.7163 116.893 14.4357 117.386 14.2404C117.883 14.0415 118.459 13.9421 119.112 13.9421C119.567 13.9421 120.002 13.9954 120.417 14.1019C120.836 14.2085 121.207 14.3736 121.53 14.5973C121.857 14.821 122.114 15.1087 122.303 15.4602C122.491 15.8082 122.585 16.2255 122.585 16.712V22.2305H120.433V21.0959H120.369C120.238 21.3516 120.062 21.5771 119.842 21.7724C119.622 21.9641 119.357 22.1151 119.048 22.2251C118.739 22.3317 118.382 22.3849 117.977 22.3849ZM118.627 20.8189C118.961 20.8189 119.256 20.7532 119.511 20.6218C119.767 20.4869 119.968 20.3058 120.113 20.0785C120.259 19.8512 120.332 19.5937 120.332 19.3061V18.4379C120.261 18.484 120.163 18.5266 120.039 18.5657C119.918 18.6012 119.781 18.6349 119.629 18.6669C119.476 18.6953 119.323 18.7219 119.171 18.7468C119.018 18.7681 118.879 18.7876 118.755 18.8054C118.489 18.8445 118.256 18.9066 118.057 18.9918C117.858 19.0771 117.704 19.1925 117.594 19.3381C117.484 19.4801 117.429 19.6577 117.429 19.8707C117.429 20.1797 117.541 20.4158 117.764 20.5792C117.992 20.739 118.279 20.8189 118.627 20.8189ZM124.345 22.2305V14.0487H126.508V15.4922H126.604C126.774 15.0128 127.059 14.6346 127.456 14.3576C127.854 14.0806 128.33 13.9421 128.884 13.9421C129.445 13.9421 129.923 14.0824 130.317 14.3629C130.711 14.6399 130.974 15.0163 131.105 15.4922H131.19C131.357 15.0234 131.659 14.6488 132.096 14.3683C132.536 14.0842 133.056 13.9421 133.657 13.9421C134.42 13.9421 135.04 14.1854 135.516 14.6719C135.995 15.1548 136.235 15.8402 136.235 16.728V22.2305H133.971V17.1754C133.971 16.7209 133.85 16.38 133.609 16.1527C133.367 15.9254 133.065 15.8118 132.703 15.8118C132.291 15.8118 131.97 15.9432 131.739 16.206C131.508 16.4652 131.393 16.8079 131.393 17.234V22.2305H129.193V17.1275C129.193 16.7262 129.077 16.4066 128.847 16.1687C128.619 15.9308 128.319 15.8118 127.946 15.8118C127.694 15.8118 127.467 15.8757 127.265 16.0036C127.066 16.1278 126.908 16.3036 126.79 16.5309C126.673 16.7546 126.615 17.0174 126.615 17.3192V22.2305H124.345ZM141.756 22.3903C140.914 22.3903 140.19 22.2198 139.583 21.8789C138.979 21.5344 138.514 21.0479 138.187 20.4194C137.86 19.7873 137.697 19.0398 137.697 18.1768C137.697 17.3352 137.86 16.5966 138.187 15.9609C138.514 15.3253 138.973 14.8299 139.567 14.4748C140.163 14.1197 140.863 13.9421 141.665 13.9421C142.205 13.9421 142.708 14.0291 143.173 14.2031C143.641 14.3736 144.05 14.631 144.398 14.9755C144.749 15.32 145.023 15.7532 145.218 16.2752C145.413 16.7937 145.511 17.4009 145.511 18.0969V18.7202H138.602V17.3139H143.375C143.375 16.9872 143.304 16.6978 143.162 16.4457C143.02 16.1935 142.823 15.9964 142.571 15.8544C142.322 15.7088 142.033 15.636 141.703 15.636C141.358 15.636 141.053 15.7159 140.786 15.8757C140.524 16.032 140.318 16.2433 140.168 16.5096C140.019 16.7724 139.943 17.0653 139.939 17.3885V18.7255C139.939 19.1303 140.014 19.4801 140.163 19.7749C140.316 20.0696 140.531 20.2969 140.808 20.4567C141.085 20.6165 141.413 20.6964 141.793 20.6964C142.045 20.6964 142.276 20.6609 142.486 20.5898C142.695 20.5188 142.874 20.4123 143.024 20.2702C143.173 20.1282 143.286 19.9542 143.364 19.7482L145.463 19.8867C145.357 20.391 145.138 20.8313 144.808 21.2077C144.481 21.5806 144.059 21.8718 143.54 22.0813C143.025 22.2873 142.431 22.3903 141.756 22.3903ZM146.992 22.2305V14.0487H149.192V15.4762H149.277C149.426 14.9684 149.677 14.5849 150.028 14.3256C150.38 14.0629 150.785 13.9315 151.243 13.9315C151.356 13.9315 151.479 13.9386 151.61 13.9528C151.742 13.967 151.857 13.9865 151.956 14.0114V16.0249C151.85 15.9929 151.703 15.9645 151.514 15.9396C151.326 15.9148 151.154 15.9023 150.998 15.9023C150.664 15.9023 150.366 15.9751 150.103 16.1207C149.844 16.2628 149.638 16.4616 149.485 16.7173C149.336 16.973 149.261 17.2678 149.261 17.6016V22.2305H146.992ZM156.446 22.3903C155.618 22.3903 154.903 22.2145 154.299 21.8629C153.699 21.5078 153.235 21.0142 152.909 20.3821C152.582 19.7464 152.419 19.0096 152.419 18.1715C152.419 17.3263 152.582 16.5877 152.909 15.9556C153.235 15.32 153.699 14.8263 154.299 14.4748C154.903 14.1197 155.618 13.9421 156.446 13.9421C157.273 13.9421 157.987 14.1197 158.587 14.4748C159.191 14.8263 159.656 15.32 159.982 15.9556C160.309 16.5877 160.473 17.3263 160.473 18.1715C160.473 19.0096 160.309 19.7464 159.982 20.3821C159.656 21.0142 159.191 21.5078 158.587 21.8629C157.987 22.2145 157.273 22.3903 156.446 22.3903ZM156.456 20.6325C156.833 20.6325 157.147 20.5259 157.399 20.3129C157.651 20.0962 157.841 19.8015 157.969 19.4286C158.1 19.0558 158.166 18.6314 158.166 18.1555C158.166 17.6797 158.1 17.2553 157.969 16.8825C157.841 16.5096 157.651 16.2148 157.399 15.9982C157.147 15.7816 156.833 15.6733 156.456 15.6733C156.076 15.6733 155.757 15.7816 155.497 15.9982C155.242 16.2148 155.048 16.5096 154.917 16.8825C154.789 17.2553 154.725 17.6797 154.725 18.1555C154.725 18.6314 154.789 19.0558 154.917 19.4286C155.048 19.8015 155.242 20.0962 155.497 20.3129C155.757 20.5259 156.076 20.6325 156.456 20.6325Z" fill="#333333"/>
</svg>
