<svg preserveAspectRatio="none" width="100%" height="100%" overflow="visible" style="display: block;" viewBox="0 0 311 308" fill="none" xmlns="http://www.w3.org/2000/svg">
<path id="Vector 1995" d="M19.0575 112.117C29.5248 92.1282 70.6669 101.253 89.9296 108.315C77.938 95.8218 32.1395 21.4076 54.4914 2.93982C72.373 -11.8344 110.644 40.9617 127.544 69.2065C125.364 44.5828 126.018 -3.68683 146.08 0.223994C166.142 4.13481 170.794 47.8418 170.613 69.2065C178.972 56.1704 199.071 31.8364 212.591 38.789C226.111 45.7416 214.953 74.6382 207.684 88.2175C234.034 73.3708 290.986 48.1316 307.995 65.9475C325.005 83.7635 265.654 124.067 233.852 141.991C251.661 143.078 287.17 149.161 286.734 164.804C286.298 180.448 246.21 180.375 226.22 178.384C247.482 190.876 294.366 244.107 281.282 264.204C273.251 276.54 217.497 238.132 188.603 216.405C192.965 233.063 198.089 266.486 183.697 266.92C169.304 267.355 156.62 241.391 152.077 228.355C134.086 271.084 102.578 322.753 79.0262 304.068C55.4749 285.383 78.4789 231.614 98.105 192.506C69.7564 206.809 10.6604 231.18 1.06546 214.233C-8.52953 197.286 49.0414 162.27 79.0262 146.88C54.6753 143.621 8.59024 132.105 19.0575 112.117Z" fill="var(--fill-0, #FFBBFF)"/>
</svg>
