<svg width="24" height="24" viewBox="0 0 24 24" fill="none" xmlns="http://www.w3.org/2000/svg">
<g clip-path="url(#clip0_5726_42404)">
<path fill-rule="evenodd" clip-rule="evenodd" d="M22.5107 12.3307C22.7046 12.0209 22.8678 11.6927 22.9979 11.3509C23.1904 10.823 23.2957 10.2669 23.3097 9.70484C23.1632 9.41353 22.9574 9.15649 22.7056 8.9504L22.2183 8.55358C22.0427 9.03951 21.8174 9.50578 21.5459 9.94489C21.1512 10.6013 20.9515 10.8904 20.9515 10.8904C21.2604 10.9977 21.5537 11.146 21.8236 11.3313C22.1391 11.5951 22.3767 11.9407 22.5107 12.3307V12.3307ZM0.886784 14.1727C0.943635 13.8208 1.02009 13.4725 1.11579 13.1292C1.21811 12.8402 1.60303 11.8653 1.60303 11.8653C1.29133 11.7425 1.00291 11.5669 0.750355 11.346C0.583431 11.1737 0.436331 10.9831 0.311836 10.7777L0.0925763 11.7134C0.0584692 11.8653 0 12.414 0 12.414C0.0422986 12.6492 0.0992559 12.8816 0.170535 13.1096C0.254147 13.3307 0.360281 13.5425 0.487244 13.7416C0.612177 13.8928 0.745573 14.0367 0.886784 14.1727V14.1727ZM3.22068 6.06981C3.50108 6.14969 3.78576 6.21348 4.07336 6.26087C4.68961 6.28994 5.30702 6.2389 5.91027 6.109C5.91027 6.109 5.01861 6.93203 4.44853 7.57869C3.87846 8.22535 3.33275 8.96509 3.33275 8.96509C2.82538 8.94227 2.32799 8.81558 1.87102 8.59277C1.73274 8.49534 1.60091 8.38897 1.47635 8.27434C1.47635 8.27434 2.09028 7.35824 2.53854 6.80465C2.80652 6.52051 3.22068 6.06981 3.22068 6.06981ZM2.66522 4.32088C2.58234 4.49243 2.52645 4.67588 2.49956 4.86467C2.49074 5.04035 2.50383 5.21645 2.53854 5.38886C2.53854 5.38886 1.78818 6.52051 1.58841 6.85854C1.38864 7.19657 1.16451 7.68647 1.16451 7.68647C1.09278 7.37212 1.09278 7.04552 1.16451 6.73117C1.31833 6.2011 1.56591 5.70325 1.89538 5.26148C2.22183 4.84507 2.66522 4.32088 2.66522 4.32088ZM4.87244 2.93938C4.87244 2.93938 6.06131 1.95958 6.38289 1.77832C6.70447 1.59706 8.16133 0.79853 8.16133 0.79853C7.93028 0.818385 7.70269 0.867772 7.48406 0.945499C6.98423 1.1549 6.50332 1.40732 6.04669 1.69994C5.92001 1.79792 5.22812 2.3515 5.11119 2.46908C5.01028 2.61394 4.92993 2.77223 4.87244 2.93938ZM5.6033 1.78812C5.6033 1.78812 5.15991 2.19473 5.03323 2.3466C4.85009 2.54918 4.72543 2.79818 4.67267 3.06675C4.67461 3.16046 4.69648 3.25267 4.73682 3.33717C4.77716 3.42167 4.83503 3.49651 4.90654 3.55664C5.11905 3.65909 5.34877 3.72057 5.58381 3.73791C6.19237 3.71581 6.79319 3.59334 7.36225 3.37538C8.00653 3.10736 8.61271 2.75485 9.16505 2.32701C9.56148 2.06784 9.85067 1.6726 9.97875 1.21494C9.9885 0.979792 9.90079 0.51929 9.25763 0.529088C9.02608 0.515811 8.79378 0.530615 8.56574 0.573178C8.56574 0.573178 10.3442 -0.151868 11.5331 0.0293938C12.7219 0.210655 12.8048 0.700551 12.8437 0.827924C12.8827 0.955297 13.1556 2.12615 10.4075 4.03184C8.71778 5.20997 6.75067 5.92273 4.7019 6.0992C4.17716 6.14453 3.64949 6.05695 3.16708 5.84446C3.05012 5.79216 2.94557 5.71542 2.8604 5.61934C2.77524 5.52326 2.7114 5.41004 2.67314 5.28722C2.63488 5.1644 2.62307 5.03479 2.63851 4.90703C2.65395 4.77926 2.69627 4.65627 2.76267 4.54623C2.9963 4.04142 3.32757 3.58844 3.73716 3.21372C4.31537 2.68206 4.93448 2.19719 5.58869 1.76363L5.6033 1.78812ZM15.7282 1.36191C15.6613 1.16485 15.5526 0.984789 15.4096 0.83421C15.2665 0.683631 15.0926 0.566143 14.8999 0.489896C14.357 0.210618 13.7638 0.0440138 13.1556 0C12.8681 0 12.2298 0.0293938 12.2298 0.0293938C12.3883 0.103223 12.5414 0.188355 12.6878 0.28414C12.8563 0.446267 12.9747 0.653772 13.0289 0.881813C13.0521 1.10213 13.0254 1.32487 12.9509 1.53337L12.834 1.75383C13.2803 1.61488 13.7342 1.50201 14.1934 1.4158C14.698 1.35718 15.2057 1.331 15.7136 1.33742L15.7282 1.36191ZM15.3287 0.553582C15.3287 0.553582 15.8549 0.715248 16.3032 0.906307C16.7514 1.09737 17.4238 1.4158 17.5408 1.50888C17.8183 1.69277 18.0473 1.94155 18.2083 2.23393C18.4422 2.66013 18.8222 3.84568 17.0974 5.90814C15.3725 7.97061 11.9326 10.1457 8.72653 11.1892C5.52047 12.2327 3.15247 12.3503 1.65176 11.7575C0.151046 11.1647 0.263112 9.97918 0.263112 9.891C0.272097 9.52838 0.324446 9.16817 0.41903 8.81813C0.570075 8.25965 0.974487 7.22596 0.974487 7.22596C0.962752 7.39006 0.974236 7.55501 1.00859 7.71586C1.08408 7.95325 1.19765 8.17665 1.34479 8.37722C1.78594 8.77063 2.33741 9.01706 2.92346 9.08267C3.87269 9.19186 4.83314 9.14886 5.76897 8.9553C7.44283 8.60169 9.06082 8.01987 10.5781 7.22596C12.3099 6.40247 13.8516 5.22444 15.1046 3.7673C15.6341 3.17247 15.9318 2.40511 15.9426 1.60686C15.9015 1.28296 15.7735 0.976426 15.5723 0.720147L15.3287 0.553582ZM20.6299 4.01225C20.6299 4.01225 21.4874 5.11941 21.658 5.38886C21.9207 5.78781 22.1273 6.2214 22.2719 6.67728C22.3407 7.24738 22.2943 7.82558 22.1355 8.37722C22.1355 8.37722 21.7408 10.0723 19.5385 12.1592C17.0792 14.3865 14.1828 16.0704 11.0361 17.1023C9.57694 17.6044 8.06134 17.922 6.52419 18.0478C5.46204 18.1525 4.38996 18.0779 3.35224 17.8273C2.42056 17.6404 1.58887 17.1177 1.01347 16.3576C0.776308 15.8479 0.599684 15.3118 0.487244 14.7606C0.326453 13.962 0.243622 13.5897 0.243622 13.5897C0.380016 13.8239 0.543575 14.041 0.730866 14.2364C0.966257 14.4853 1.25672 14.675 1.57867 14.79C2.04119 15.0107 2.53384 15.161 3.0404 15.2358C3.94713 15.352 4.86387 15.3668 5.77384 15.2799C6.83116 15.1525 8.63396 14.7263 8.63396 14.7263C10.1021 14.3604 11.5229 13.8245 12.8681 13.1292C14.5582 12.3635 16.1289 11.3552 17.531 10.1359C18.145 9.60196 19.7334 8.17636 20.3765 6.70667C21.0197 5.23699 20.8248 4.57563 20.7907 4.42866C20.7448 4.28696 20.6911 4.14795 20.6299 4.01225V4.01225ZM18.1011 4.76669C18.301 4.34576 18.4641 3.90809 18.5883 3.45867C18.603 3.15466 18.5784 2.85002 18.5153 2.55236C18.6935 2.59246 18.8692 2.64318 19.0415 2.70423C19.3301 2.84512 19.6071 3.00893 19.8698 3.19412C20.1069 3.44326 20.3071 3.72539 20.4642 4.03184C20.6362 4.44672 20.6836 4.90312 20.6007 5.34476C20.3105 5.17769 20.0055 5.03828 19.6895 4.92835C19.1686 4.80967 18.6351 4.75538 18.1011 4.76669V4.76669ZM6.03695 8.73974C7.57156 8.37841 9.05824 7.83576 10.466 7.12309C11.9214 6.38743 13.2531 5.42701 14.4127 4.27679C14.764 3.91432 15.076 3.51526 15.3433 3.08634L15.5577 2.65034C15.5577 2.65034 13.8864 2.8169 10.9386 4.58543C9.10482 5.71249 7.45205 7.11326 6.03695 8.73974V8.73974ZM1.98795 17.4501V17.6754C2.027 17.9753 2.10565 18.2685 2.22183 18.5475C2.32546 18.8085 2.46664 19.0527 2.64086 19.2725C2.93133 19.5248 3.26039 19.7282 3.61535 19.8751C4.10259 20.0808 4.86756 20.365 4.86756 20.365C4.86756 20.365 4.75063 20.2229 4.71165 20.1641C4.52172 19.8622 4.38184 19.5313 4.29749 19.1843C4.23991 18.8505 4.20248 18.5135 4.18542 18.1751C3.65845 18.0908 3.13994 17.9596 2.63599 17.7832C2.39724 17.6656 1.98795 17.4501 1.98795 17.4501ZM2.30953 14.8977C2.61683 14.9857 2.92927 15.0544 3.24504 15.1035C3.78544 15.163 4.32882 15.1908 4.87244 15.1868C5.10732 14.595 5.38921 14.0233 5.71537 13.477C6.17825 12.7471 6.74345 11.929 6.74345 11.929C6.09928 12.063 5.4488 12.1644 4.79448 12.2327C4.28774 12.2474 3.47405 12.2474 3.47405 12.2474C3.47405 12.2474 2.9868 13.1047 2.75293 13.6828C2.55316 14.1482 2.30953 14.8977 2.30953 14.8977V14.8977ZM5.84692 3.54195C5.84692 3.54195 6.91886 2.66993 7.65947 2.18983C8.63396 1.57257 9.83258 0.925903 9.83258 0.925903C9.83258 0.925903 10.1785 1.68034 8.14671 2.812C6.59241 3.65952 5.84692 3.54195 5.84692 3.54195ZM3.26453 19.8261C4.02891 20.257 4.86979 20.5332 5.73973 20.6393C7.00169 20.7373 9.6864 20.8892 13.6672 19.3264C16.4786 18.2639 19.0283 16.6027 21.1415 14.4568C21.8413 13.6949 22.4452 12.8491 22.9394 11.9388C23.0515 11.6987 23.3438 10.714 23.3438 10.714L23.4072 10.2584C23.4761 10.675 23.5184 11.0955 23.5339 11.5175C23.5781 12.6391 23.3134 13.7512 22.7689 14.7312C21.676 16.4977 20.2003 17.9932 18.4519 19.1059C16.2477 20.5541 13.7885 21.5651 11.2066 22.0845C9.79858 22.3916 8.34322 22.4083 6.92861 22.1335C6.33023 22.0078 5.75383 21.7931 5.21838 21.4966C4.50695 21.0151 3.85156 20.4547 3.26453 19.8261V19.8261ZM13.8913 19.0667C13.8913 19.0667 15.7964 18.2388 16.9366 17.5628C18.0473 16.8514 19.1161 16.0761 20.1378 15.2407C20.1378 15.2407 18.8709 15.0153 16.9366 16.1176C15.679 16.8112 14.6278 17.8292 13.8913 19.0667V19.0667ZM19.4605 20.0465C19.4605 20.0465 20.3327 19.3313 20.8345 18.8169C21.212 18.4161 21.5667 17.9941 21.8967 17.553C21.9471 17.2917 21.9635 17.0249 21.9455 16.7593C21.8967 16.4997 21.848 16.338 21.848 16.338C21.848 16.338 21.2828 17.019 21.0733 17.1953C20.8638 17.3717 20.0257 18.1261 20.0257 18.1261C20.1123 18.3493 20.1292 18.5936 20.0744 18.8267C19.9383 19.2677 19.7309 19.6831 19.4605 20.0563V20.0465ZM13.4382 21.6779C13.4382 21.6779 14.8999 21.1439 15.1435 21.0263L15.9816 20.6736C16.0244 20.8188 16.1013 20.9515 16.2057 21.0606C16.3958 21.2232 16.6384 21.3103 16.8879 21.3056C17.1507 21.3077 17.4121 21.2681 17.6626 21.188C17.1133 21.5163 16.5473 21.8155 15.967 22.0845C15.4213 22.3148 14.5394 22.5744 14.5394 22.5744C14.2644 22.5437 14.0107 22.4109 13.828 22.2021C13.4577 21.8396 13.4382 21.6779 13.4382 21.6779ZM19.4897 7.92162C18.6486 7.96321 17.818 8.12826 17.0243 8.41151C15.9456 8.77829 14.9137 9.27159 13.9498 9.8812C12.9049 10.5352 11.9258 11.2899 11.0263 12.1347C10.2546 12.86 9.54552 13.65 8.90681 14.496C10.8217 13.8967 12.67 13.1005 14.4224 12.12C16.341 11.0268 18.0557 9.60612 19.4897 7.92162ZM6.93835 18.1751C6.71912 18.8397 6.59765 19.5328 6.57779 20.2327C6.57779 20.3405 6.57779 20.5413 6.57779 20.5413C7.01926 20.5645 7.46162 20.5645 7.90309 20.5413C8.42813 20.5192 8.95086 20.4586 9.46714 20.3601C9.47943 19.6882 9.61316 19.0242 9.86181 18.4005C9.88617 18.3319 10.2321 17.5628 10.2321 17.5628C10.2321 17.5628 9.0335 17.9106 8.17595 18.0527C7.41098 18.1261 6.93835 18.1751 6.93835 18.1751ZM7.30866 22.3735C7.30866 22.3735 7.48894 22.5695 7.58638 22.6577C7.75451 22.8075 7.93926 22.9374 8.13697 23.0447C8.32212 23.1427 10.4709 23.3386 10.4709 23.3386L12.9461 23.0447C12.3469 23.0545 11.7486 22.9953 11.1628 22.8683C10.8621 22.7357 10.5763 22.5715 10.3101 22.3784C9.78015 22.4471 9.24622 22.4799 8.71192 22.4764C7.8495 22.4519 7.30866 22.3735 7.30866 22.3735ZM10.2321 23.4758C10.637 23.5015 11.0434 23.4867 11.4454 23.4317C12.0712 23.3673 12.6927 23.2658 13.3066 23.128C13.3066 23.128 14.2226 22.8977 14.6319 22.7508C15.0412 22.6038 15.5918 22.3931 16.3763 22.0453C17.0233 21.7858 17.6407 21.4574 18.218 21.0655C19.1535 20.463 19.4556 20.2131 19.5385 20.1592C20.0731 19.7484 20.5794 19.3016 21.0538 18.8218C21.351 18.4985 21.6531 18.1555 21.6531 18.1555C21.3986 18.57 21.1136 18.9646 20.8004 19.3362C20.2042 20.09 19.4997 20.7504 18.7102 21.2958C17.4374 22.2201 15.9975 22.8857 14.4711 23.2554C13.0692 23.5817 11.6209 23.6564 10.1931 23.4758H10.2321Z" fill="#E30613"/>
</g>
<defs>
<clipPath id="clip0_5726_42404">
<rect width="24" height="24" fill="white"/>
</clipPath>
</defs>
</svg>
