<svg width="287" height="413" viewBox="0 0 287 413" fill="none" xmlns="http://www.w3.org/2000/svg">
<g clip-path="url(#clip0_2087_242)">
<rect width="287" height="413" rx="30" fill="#FE874F"/>
<path d="M-73.793 13.0703L-16.5503 65.8778L41.1016 13.0703L98.3442 65.8778L155.996 13.0703L213.239 65.8778L270.891 13.0703L328.133 65.8778L385.785 13.0703" stroke="#C470E3" stroke-width="22"/>
<path d="M-73.793 261.334L-16.5503 314.141L41.1016 261.334L98.3442 314.141L155.996 261.334L213.239 314.141L270.891 261.334L328.133 314.141L385.785 261.334" stroke="#C470E3" stroke-width="22"/>
<path d="M-73.793 72.7617L-16.5503 125.569L41.1016 72.7617L98.3442 125.569L155.996 72.7617L213.239 125.569L270.891 72.7617L328.133 125.569L385.785 72.7617" stroke="#C470E3" stroke-width="22"/>
<path d="M-73.793 321.025L-16.5503 373.833L41.1016 321.025L98.3442 373.833L155.996 321.025L213.239 373.833L270.891 321.025L328.133 373.833L385.785 321.025" stroke="#C470E3" stroke-width="22"/>
<path d="M-73.793 135.619L-16.5503 188.427L41.1016 135.619L98.3442 188.427L155.996 135.619L213.239 188.427L270.891 135.619L328.133 188.427L385.785 135.619" stroke="#C470E3" stroke-width="22"/>
<path d="M-73.793 383.883L-16.5503 436.69L41.1016 383.883L98.3442 436.69L155.996 383.883L213.239 436.69L270.891 383.883L328.133 436.69L385.785 383.883" stroke="#C470E3" stroke-width="22"/>
<path d="M-73.793 198.477L-16.5503 251.284L41.1016 198.477L98.3442 251.284L155.996 198.477L213.239 251.284L270.891 198.477L328.133 251.284L385.785 198.477" stroke="#C470E3" stroke-width="22"/>
</g>
<defs>
<clipPath id="clip0_2087_242">
<rect width="287" height="413" rx="30" fill="white"/>
</clipPath>
</defs>
</svg>
