<svg width="287" height="413" viewBox="0 0 287 413" fill="none" xmlns="http://www.w3.org/2000/svg">
<g clip-path="url(#clip0_2087_274)">
<rect width="287" height="413" rx="30" fill="#6FE887"/>
<path d="M10.7324 84.0557L-15.8203 38.0645L10.7334 -7.92578L37.2861 38.0645H37.2852L10.7324 84.0557Z" fill="#7EFA6E"/>
<path d="M10.7324 176.036L-15.8203 130.045L10.7334 84.0547L37.2861 130.045H37.2852L10.7324 176.036Z" fill="#7EFA6E"/>
<path d="M10.7324 268.018L-15.8203 222.027L10.7334 176.037L37.2861 222.027H37.2852L10.7324 268.018Z" fill="#7EFA6E"/>
<path d="M10.7324 359.997L-15.8203 314.007L10.7334 268.016L37.2861 314.007H37.2852L10.7324 359.997Z" fill="#7EFA6E"/>
<path d="M10.7324 451.979L-15.8203 405.989L10.7334 359.998L37.2861 405.989H37.2852L10.7324 451.979Z" fill="#7EFA6E"/>
<path d="M63.8418 84.0557L37.2891 38.0645L63.8418 -7.92578L90.3945 38.0645L63.8418 84.0557Z" fill="#7EFA6E"/>
<path d="M63.8418 176.036L37.2891 130.045L63.8418 84.0547L90.3945 130.045L63.8418 176.036Z" fill="#7EFA6E"/>
<path d="M63.8418 268.018L37.2891 222.027L63.8418 176.037L90.3945 222.027L63.8418 268.018Z" fill="#7EFA6E"/>
<path d="M63.8418 359.997L37.2891 314.007L63.8418 268.016L90.3945 314.007L63.8418 359.997Z" fill="#7EFA6E"/>
<path d="M63.8418 451.979L37.2891 405.989L63.8418 359.998L90.3945 405.989L63.8418 451.979Z" fill="#7EFA6E"/>
<path d="M116.945 84.0557L90.3926 38.0645H90.3936L116.946 -7.92578L143.499 38.0645L116.945 84.0557Z" fill="#7EFA6E"/>
<path d="M116.945 176.036L90.3926 130.045H90.3936L116.946 84.0547L143.499 130.045L116.945 176.036Z" fill="#7EFA6E"/>
<path d="M116.945 268.018L90.3926 222.027H90.3936L116.946 176.037L143.499 222.027L116.945 268.018Z" fill="#7EFA6E"/>
<path d="M116.945 359.997L90.3926 314.007H90.3936L116.946 268.016L143.499 314.007L116.945 359.997Z" fill="#7EFA6E"/>
<path d="M116.945 451.979L90.3926 405.989H90.3936L116.946 359.998L143.499 405.989L116.945 451.979Z" fill="#7EFA6E"/>
<path d="M170.055 84.0557L143.502 38.0645L170.056 -7.92578L196.608 38.0645H196.607L170.055 84.0557Z" fill="#7EFA6E"/>
<path d="M170.055 176.036L143.502 130.045L170.056 84.0547L196.608 130.045H196.607L170.055 176.036Z" fill="#7EFA6E"/>
<path d="M170.055 268.018L143.502 222.027L170.056 176.037L196.608 222.027H196.607L170.055 268.018Z" fill="#7EFA6E"/>
<path d="M170.055 359.997L143.502 314.007L170.056 268.016L196.608 314.007H196.607L170.055 359.997Z" fill="#7EFA6E"/>
<path d="M170.055 451.979L143.502 405.989L170.056 359.998L196.608 405.989H196.607L170.055 451.979Z" fill="#7EFA6E"/>
<path d="M223.158 84.0557L196.605 38.0645L223.158 -7.92578L249.711 38.0645L223.158 84.0557Z" fill="#7EFA6E"/>
<path d="M223.158 176.036L196.605 130.045L223.158 84.0547L249.711 130.045L223.158 176.036Z" fill="#7EFA6E"/>
<path d="M223.158 268.018L196.605 222.027L223.158 176.037L249.711 222.027L223.158 268.018Z" fill="#7EFA6E"/>
<path d="M223.158 359.997L196.605 314.007L223.158 268.016L249.711 314.007L223.158 359.997Z" fill="#7EFA6E"/>
<path d="M223.158 451.979L196.605 405.989L223.158 359.998L249.711 405.989L223.158 451.979Z" fill="#7EFA6E"/>
<path d="M276.267 84.0557L249.713 38.0645H249.714L276.267 -7.92578L302.819 38.0645L276.267 84.0557Z" fill="#7EFA6E"/>
<path d="M276.267 176.036L249.713 130.045H249.714L276.267 84.0547L302.819 130.045L276.267 176.036Z" fill="#7EFA6E"/>
<path d="M276.267 268.018L249.713 222.027H249.714L276.267 176.037L302.819 222.027L276.267 268.018Z" fill="#7EFA6E"/>
<path d="M276.267 359.997L249.713 314.007H249.714L276.267 268.016L302.819 314.007L276.267 359.997Z" fill="#7EFA6E"/>
<path d="M276.267 451.979L249.713 405.989H249.714L276.267 359.998L302.819 405.989L276.267 451.979Z" fill="#7EFA6E"/>
</g>
<defs>
<clipPath id="clip0_2087_274">
<rect width="287" height="413" rx="30" fill="white"/>
</clipPath>
</defs>
</svg>
