<svg width="275" height="352" viewBox="0 0 275 352" fill="none" xmlns="http://www.w3.org/2000/svg">
<g clip-path="url(#clip0_5959_61446)">
<rect width="275" height="352" fill="#028B6C"/>
<path d="M274.998 61.5C274.929 61.5045 258.832 62.5572 248.957 69.833C239.067 77.1206 222.933 77.125 222.915 77.125V63.7236C218.54 64.9245 213.749 66.7473 209.843 69.4961L208.905 70.1699C198.977 77.1249 183.332 77.125 183.332 77.125V38.583C183.332 38.583 199.999 36.5003 209.374 31.292C218.749 26.0837 235.416 22.958 235.416 22.958V36.1885C240.055 35.0322 245.118 33.4248 248.957 31.292C258.316 26.0924 274.943 22.9684 274.998 22.958V61.5ZM91.666 15.624C91.893 15.5955 108.395 13.5054 117.705 8.33301C127.08 3.12468 143.747 0 143.747 0V13.2295C148.386 12.0732 153.449 10.4659 157.288 8.33301C166.663 3.12474 183.33 0 183.33 0V38.542C183.33 38.542 167.685 39.5515 157.757 46.5381L156.819 47.2119C146.891 54.1668 131.246 54.167 131.246 54.167V40.7646C126.695 42.014 121.692 43.9371 117.705 46.875C107.835 54.1474 91.7482 54.1669 91.6641 54.167V15.7539C91.4613 15.7672 75.4571 16.8416 65.624 24.0869C55.7546 31.3591 39.6687 31.3789 39.583 31.3789V17.9775C35.0315 19.2268 30.0293 21.1491 26.042 24.0869C16.1462 31.3786 0 31.3789 0 31.3789V-7.16211C0 -7.16211 16.667 -9.24578 26.042 -14.4541C35.3938 -19.6494 52.0007 -22.7717 52.083 -22.7871V-9.55762C56.7224 -10.7139 61.7848 -12.3212 65.624 -14.4541C74.999 -19.6624 91.666 -22.7871 91.666 -22.7871V15.624Z" fill="#FF6EFF"/>
<path d="M274.998 138.251C274.929 138.255 258.832 139.308 248.957 146.584C239.067 153.872 222.933 153.876 222.915 153.876V140.475C218.54 141.675 213.749 143.498 209.843 146.247L208.905 146.921C198.977 153.876 183.332 153.876 183.332 153.876V115.334C183.332 115.334 199.999 113.251 209.374 108.043C218.749 102.835 235.416 99.709 235.416 99.709V112.939C240.055 111.783 245.118 110.176 248.957 108.043C258.316 102.843 274.943 99.7194 274.998 99.709V138.251ZM91.666 92.375C91.893 92.3464 108.395 90.2564 117.705 85.084C127.08 79.8757 143.747 76.751 143.747 76.751V89.9805C148.386 88.8242 153.449 87.2168 157.288 85.084C166.663 79.8757 183.33 76.751 183.33 76.751V115.293C183.33 115.293 167.685 116.302 157.757 123.289L156.819 123.963C146.891 130.918 131.246 130.918 131.246 130.918V117.516C126.695 118.765 121.692 120.688 117.705 123.626C107.835 130.898 91.7482 130.918 91.6641 130.918V92.5049C91.4613 92.5182 75.4571 93.5925 65.624 100.838C55.7546 108.11 39.6687 108.13 39.583 108.13V94.7285C35.0315 95.9778 30.0293 97.9 26.042 100.838C16.1462 108.13 0 108.13 0 108.13V69.5889C0 69.5889 16.667 67.5052 26.042 62.2969C35.3938 57.1015 52.0007 53.9793 52.083 53.9639V67.1934C56.7224 66.0371 61.7848 64.4297 65.624 62.2969C74.999 57.0886 91.666 53.9639 91.666 53.9639V92.375Z" fill="#FF6EFF"/>
<path d="M274.998 215.251C274.929 215.255 258.832 216.308 248.957 223.584C239.067 230.872 222.933 230.876 222.915 230.876V217.475C218.54 218.675 213.749 220.498 209.843 223.247L208.905 223.921C198.977 230.876 183.332 230.876 183.332 230.876V192.334C183.332 192.334 199.999 190.251 209.374 185.043C218.749 179.835 235.416 176.709 235.416 176.709V189.939C240.055 188.783 245.118 187.176 248.957 185.043C258.316 179.843 274.943 176.719 274.998 176.709V215.251ZM91.666 169.375C91.893 169.346 108.395 167.256 117.705 162.084C127.08 156.876 143.747 153.751 143.747 153.751V166.98C148.386 165.824 153.449 164.217 157.288 162.084C166.663 156.876 183.33 153.751 183.33 153.751V192.293C183.33 192.293 167.685 193.302 157.757 200.289L156.819 200.963C146.891 207.918 131.246 207.918 131.246 207.918V194.516C126.695 195.765 121.692 197.688 117.705 200.626C107.835 207.898 91.7482 207.918 91.6641 207.918V169.505C91.4613 169.518 75.4571 170.593 65.624 177.838C55.7546 185.11 39.6687 185.13 39.583 185.13V171.729C35.0315 172.978 30.0293 174.9 26.042 177.838C16.1462 185.13 0 185.13 0 185.13V146.589C0 146.589 16.667 144.505 26.042 139.297C35.3938 134.102 52.0007 130.979 52.083 130.964V144.193C56.7224 143.037 61.7848 141.43 65.624 139.297C74.999 134.089 91.666 130.964 91.666 130.964V169.375Z" fill="#FF6EFF"/>
<path d="M274.998 292.251C274.929 292.255 258.832 293.308 248.957 300.584C239.067 307.872 222.933 307.876 222.915 307.876V294.475C218.54 295.675 213.749 297.498 209.843 300.247L208.905 300.921C198.977 307.876 183.332 307.876 183.332 307.876V269.334C183.332 269.334 199.999 267.251 209.374 262.043C218.749 256.835 235.416 253.709 235.416 253.709V266.939C240.055 265.783 245.118 264.176 248.957 262.043C258.316 256.843 274.943 253.719 274.998 253.709V292.251ZM91.666 246.375C91.893 246.346 108.395 244.256 117.705 239.084C127.08 233.876 143.747 230.751 143.747 230.751V243.98C148.386 242.824 153.449 241.217 157.288 239.084C166.663 233.876 183.33 230.751 183.33 230.751V269.293C183.33 269.293 167.685 270.302 157.757 277.289L156.819 277.963C146.891 284.918 131.246 284.918 131.246 284.918V271.516C126.695 272.765 121.692 274.688 117.705 277.626C107.835 284.898 91.7482 284.918 91.6641 284.918V246.505C91.4613 246.518 75.4571 247.593 65.624 254.838C55.7546 262.11 39.6687 262.13 39.583 262.13V248.729C35.0315 249.978 30.0293 251.9 26.042 254.838C16.1462 262.13 0 262.13 0 262.13V223.589C0 223.589 16.667 221.505 26.042 216.297C35.3938 211.102 52.0007 207.979 52.083 207.964V221.193C56.7224 220.037 61.7848 218.43 65.624 216.297C74.999 211.089 91.666 207.964 91.666 207.964V246.375Z" fill="#FF6EFF"/>
<path d="M274.998 369.251C274.929 369.255 258.832 370.308 248.957 377.584C239.067 384.872 222.933 384.876 222.915 384.876V371.475C218.54 372.675 213.749 374.498 209.843 377.247L208.905 377.921C198.977 384.876 183.332 384.876 183.332 384.876V346.334C183.332 346.334 199.999 344.251 209.374 339.043C218.749 333.835 235.416 330.709 235.416 330.709V343.939C240.055 342.783 245.118 341.176 248.957 339.043C258.316 333.843 274.943 330.719 274.998 330.709V369.251ZM91.666 323.375C91.893 323.346 108.395 321.256 117.705 316.084C127.08 310.876 143.747 307.751 143.747 307.751V320.98C148.386 319.824 153.449 318.217 157.288 316.084C166.663 310.876 183.33 307.751 183.33 307.751V346.293C183.33 346.293 167.685 347.302 157.757 354.289L156.819 354.963C146.891 361.918 131.246 361.918 131.246 361.918V348.516C126.695 349.765 121.692 351.688 117.705 354.626C107.835 361.898 91.7482 361.918 91.6641 361.918V323.505C91.4613 323.518 75.4571 324.593 65.624 331.838C55.7546 339.11 39.6687 339.13 39.583 339.13V325.729C35.0315 326.978 30.0293 328.9 26.042 331.838C16.1462 339.13 0 339.13 0 339.13V300.589C0 300.589 16.667 298.505 26.042 293.297C35.3938 288.102 52.0007 284.979 52.083 284.964V298.193C56.7224 297.037 61.7848 295.43 65.624 293.297C74.999 288.089 91.666 284.964 91.666 284.964V323.375Z" fill="#FF6EFF"/>
</g>
<defs>
<clipPath id="clip0_5959_61446">
<rect width="275" height="352" fill="white"/>
</clipPath>
</defs>
</svg>
