<svg width="275" height="352" viewBox="0 0 275 352" fill="none" xmlns="http://www.w3.org/2000/svg">
<g clip-path="url(#clip0_5955_59166)">
<rect width="275" height="352" fill="#5100BB"/>
<path d="M137.5 352H0V320H137.5V352ZM185.768 224C192.118 228.666 199.371 233.808 206.75 238.728L206.75 256L236.064 256C245.683 260.544 253.08 262.261 255.449 258.6C255.97 257.795 256.375 256.926 256.674 256L275 256V288L206.75 288V320L275 320V352L206.25 352V320L138 320V288L206.25 288V256H181.024C184.081 248.648 182.34 234.449 180.096 224L185.768 224ZM112.1 288C103.886 295.156 95.6604 297.56 88.3604 291.733C86.9793 290.631 85.7924 289.381 84.7842 288L112.1 288ZM81.873 256C79.1135 268.999 79.2844 280.465 84.7842 288H0V256H81.873ZM137.5 288L112.1 288C120.264 280.888 128.415 269.081 135.636 256H137.5V288ZM181.024 256C179.809 258.924 177.835 260.766 174.831 260.857C171.208 260.967 167.718 259.039 164.508 256L181.024 256ZM245.767 224C253.941 235.977 259.23 248.077 256.674 256L236.064 256C227.41 251.912 216.958 245.533 206.75 238.728L206.75 224H245.767ZM148.709 228.803C151.319 236.337 157.181 249.064 164.508 256H138L138 251.608C141.954 244.087 145.58 236.28 148.709 228.803ZM138 64L160.552 64C163.198 75.0956 164.057 87.5252 164.023 96H138V128H206.25V160L138 160V192H206.25V224L185.768 224C183.326 222.206 181.016 220.484 178.885 218.871C179.289 220.425 179.699 222.154 180.096 224L138 224L138 251.608C137.224 253.085 136.436 254.55 135.636 256H81.873C84.0206 245.884 87.9427 234.84 92.5137 224L137.5 224V192H39.5635C53.9643 180.239 74.6516 168.162 88.3604 161.083C86.2496 160.799 83.9412 160.436 81.5098 160H137.5V128H96.4404C91.9654 122.811 83.5976 110.196 76.3633 96L128.128 96C128.233 96.1757 128.339 96.349 128.442 96.5225C128.427 96.3498 128.414 96.1755 128.399 96H137.5V64H128.532C129.748 52.8318 132.527 43.1087 138 40.0205L138 64ZM275 192L275 224H245.767C237.312 211.612 225.771 199.358 216.625 192H275ZM39.5635 192C27.9425 201.491 20.4141 210.775 23.9541 217.065C31.8813 231.151 80.7016 210.894 104.121 199.006C100.222 206.824 96.1622 215.348 92.5137 224L0 224V192H39.5635ZM236.702 160C248.837 162.847 260.178 167.867 259.953 175.981C259.593 188.984 226.475 188.923 209.961 187.268C211.946 188.441 214.201 190.05 216.625 192L206.75 192V160H236.702ZM275 128V160H236.702C229.393 158.285 221.797 157.359 216.267 157.02C228.454 150.109 245.536 139.193 258.949 128L275 128ZM42.0273 128C40.7444 129.183 39.6606 130.57 38.8184 132.188C31.0784 147.059 60.7683 156.285 81.5098 160L0 160V128L42.0273 128ZM96.4404 128C96.7716 128.384 97.0807 128.728 97.3672 129.028C96.4474 128.689 95.4667 128.346 94.4346 128L96.4404 128ZM275 91.7461C275.927 92.3385 276.769 93.0257 277.518 93.8145C285.051 101.754 274.452 115.063 258.949 128H206.75V105.944C213.737 102.502 221.694 98.9659 229.751 96H275V91.7461ZM42.0273 128C53.1551 117.739 79.3483 122.947 94.4346 128H42.0273ZM206.75 0L275 0V32L206.75 32V64L275 64V91.7461C265.588 85.7308 247.432 89.4913 229.751 96H206.75V105.944C202.231 108.171 198.119 110.357 194.648 112.324C196.887 108.117 199.571 102.141 201.479 96L206.25 96V64H160.552C157.596 51.6106 152.413 40.8847 143.755 39.1865C141.568 38.7576 139.66 39.0838 138 40.0205L138 32L206.25 32V0L138 0V-32L206.75 -32V0ZM164.022 96.5225C164.024 96.35 164.023 96.1759 164.023 96H164.36C164.246 96.1767 164.132 96.3503 164.022 96.5225ZM164.36 96C171.456 85.0521 187.709 65.5538 198.701 71.2402C205.707 74.865 204.692 85.6661 201.479 96H164.36ZM64.1475 64C66.1943 73.9265 70.9632 85.4035 76.3633 96L0 96V64H64.1475ZM128.532 64C127.346 74.8982 127.652 87.1721 128.399 96H128.128C122.638 86.8219 114.555 74.6865 105.863 64H128.532ZM68.0908 41.4434C77.0511 33.995 92.2075 47.2101 105.863 64L64.1475 64C62.1222 54.1778 62.7613 45.8737 68.0908 41.4434ZM137.5 32H0V0H137.5V32Z" fill="#FFBBFF"/>
</g>
<defs>
<clipPath id="clip0_5955_59166">
<rect width="275" height="352" fill="white"/>
</clipPath>
</defs>
</svg>
