<svg width="275" height="352" viewBox="0 0 275 352" fill="none" xmlns="http://www.w3.org/2000/svg">
<g clip-path="url(#clip0_5961_44380)">
<rect width="275" height="352" fill="#FE5900"/>
<path d="M96 384H48V336H96V384ZM192 384H144V336H192V384ZM288 384H240V336H288V384ZM48 336H0V288H48V336ZM111.043 288C113.886 291.201 117.712 293.402 121.947 294.243C127.193 295.498 132.614 295.871 137.983 295.347C139.997 295.184 142.004 294.955 144 294.663V295.597C141.545 295.835 140.097 295.982 140.077 295.984C138.969 299.311 138.354 302.781 138.254 306.284V307.83C140.168 307.929 142.085 307.941 144 307.87V308.525C139.713 308.717 136.374 308.501 134.018 308.32C129.62 307.789 125.368 306.406 121.504 304.249C124.472 307.396 127.785 310.202 131.382 312.612C134.089 314.096 137.003 315.171 140.027 315.8C141.345 316.053 142.671 316.257 144 316.411V317.225C142.697 317.107 141.963 317.004 141.949 317.002C141.965 317.019 142.865 317.986 143.354 318.424C143.564 318.61 143.779 318.79 144 318.963V336H96V288H111.043ZM240 336H192V316.264C194.635 314.901 197.172 313.345 199.59 311.606C203.581 308.876 207.143 305.57 210.157 301.797C211.74 299.937 213.181 297.961 214.468 295.887C214.452 295.904 212.932 297.611 211.438 299.222C209.039 301.623 206.48 303.861 203.777 305.917C203.359 306.187 201.831 307.438 197.102 310.454C195.462 311.556 193.758 312.557 192 313.454V312.379C192.77 311.952 193.536 311.515 194.294 311.066C193.546 311.303 192.777 311.468 192 311.562V304.424C194.135 303.239 196.232 301.98 198.284 300.645C203.843 297.142 208.856 292.88 213.186 288H214.413C213.486 289.07 212.18 290.543 211.536 291.08C210.476 291.964 206.24 295.739 206.24 295.739C206.678 296.856 206.763 298.079 206.486 299.246C205.813 301.407 204.792 303.444 203.468 305.281C204.094 304.769 208.001 301.561 210.329 299.197C212.238 297.191 214.031 295.078 215.699 292.87C215.954 291.562 216.036 290.227 215.945 288.897C215.882 288.564 215.819 288.263 215.76 288H240V336ZM192 316.264C187.623 318.528 182.976 320.261 178.159 321.416C171.072 323.05 163.749 323.423 156.531 322.52H156.729C158.775 322.648 160.83 322.574 162.862 322.299C166.026 321.976 169.168 321.468 172.271 320.778C172.271 320.778 176.902 319.625 178.972 318.89C181.041 318.154 183.824 317.1 187.79 315.358C189.223 314.789 190.628 314.154 192 313.454V316.264ZM157.123 317.026C158.469 317.993 159.914 318.815 161.434 319.479C164.395 320.114 167.42 320.41 170.449 320.361L157.936 321.833C157.896 321.829 147.071 320.851 146.137 320.361C145.385 319.957 144.67 319.489 144 318.963V317.225C145.222 317.335 146.944 317.458 149.043 317.517C151.744 317.534 154.444 317.37 157.123 317.026ZM185.795 308.492C186.011 309.219 186.401 309.884 186.929 310.43C187.89 311.243 189.116 311.679 190.377 311.655C190.92 311.66 191.462 311.628 192 311.562V312.379C189.948 313.516 187.855 314.576 185.722 315.555C182.967 316.705 178.518 318.003 178.504 318.007C177.114 317.853 175.831 317.189 174.907 316.144C173.053 314.346 172.938 313.534 172.937 313.52C172.937 313.52 180.327 310.846 181.559 310.258L185.795 308.492ZM192 304.424C182.54 309.673 172.304 313.433 161.655 315.555C155.849 316.809 149.883 317.095 144 316.411V308.525C151.319 308.199 161.404 306.681 174.095 301.748C180.344 299.409 186.337 296.49 192 293.041V304.424ZM156.729 292.919C156.724 292.929 154.98 296.768 154.856 297.112C153.599 300.235 152.923 303.559 152.861 306.922C150.251 307.415 147.608 307.719 144.954 307.83C144.636 307.847 144.318 307.858 144 307.87V295.597C144.699 295.529 145.481 295.452 146.334 295.371C150.658 294.662 156.697 292.928 156.729 292.919ZM115.05 293.483C115.247 294.984 115.645 296.452 116.232 297.849C116.756 299.155 117.47 300.378 118.351 301.478C119.819 302.74 121.483 303.759 123.277 304.494C125.741 305.524 129.608 306.947 129.608 306.947C129.608 306.947 129.016 306.236 128.819 305.941C127.859 304.43 127.152 302.773 126.726 301.036C126.435 299.365 126.245 297.678 126.159 295.984C123.495 295.562 120.874 294.905 118.326 294.022C117.119 293.434 115.05 292.354 115.05 292.354V293.483ZM203.383 305.353V305.401C203.412 305.362 203.439 305.321 203.468 305.281C203.412 305.327 203.383 305.353 203.383 305.353ZM192 284.941C200.967 280.29 206.765 281.288 206.807 281.295C203.929 283.625 200.978 285.86 197.957 288H192V292.035C191.542 292.332 191.084 292.627 190.623 292.919C184.859 296.303 175.228 300.448 175.228 300.448C178.194 295.512 182.171 291.275 186.881 288H192V284.941ZM106.231 273.03C106.921 274.203 107.749 275.289 108.695 276.268C109.885 277.514 111.354 278.463 112.981 279.038C115.32 280.143 117.81 280.896 120.371 281.271C124.955 281.852 129.589 281.926 134.189 281.491C137.039 281.151 140.96 280.384 144 279.743V288H168.038C165.655 288.947 163.239 289.819 160.793 290.613C155.328 292.475 149.706 293.83 144 294.663V288H111.043C110.724 287.641 110.417 287.269 110.124 286.886C108.925 284.334 108.031 281.651 107.463 278.892C106.656 274.923 106.237 273.057 106.231 273.03ZM199.526 288C197.091 289.787 194.58 291.47 192 293.041V292.035C194.014 290.731 196 289.386 197.957 288H199.526ZM223.336 256.354C223.684 258.439 223.897 260.544 223.976 262.656C224.199 268.271 222.861 273.838 220.108 278.744C218.058 282.026 215.741 285.121 213.186 288H199.526C203.903 284.789 208.035 281.238 211.881 277.371C215.419 273.557 218.472 269.323 220.971 264.766C221.537 263.564 223.016 258.634 223.016 258.634L223.336 256.354ZM215.453 286.788C215.456 286.797 215.59 287.244 215.76 288H214.413C215.009 287.312 215.45 286.792 215.453 286.788ZM96 288H48V240H96V288ZM288 288H240V240H288V288ZM192 284.941C191.549 285.175 191.089 285.421 190.623 285.685C189.331 286.39 188.082 287.164 186.881 288H168.038C176.497 284.639 184.535 280.33 192 275.162V284.941ZM139.092 264.716C139.092 264.716 136.235 268.812 133.895 272.466C132.246 275.2 130.82 278.062 129.633 281.024C126.885 281.045 124.137 280.905 121.405 280.607C119.809 280.362 118.229 280.019 116.676 279.578C116.676 279.578 117.907 275.826 118.917 273.496C120.098 270.606 122.558 266.321 122.563 266.311C122.608 266.311 126.69 266.309 129.238 266.236C132.546 265.895 135.835 265.387 139.092 264.716ZM192 246.79C191.688 246.893 191.376 246.999 191.066 247.108C185.613 248.944 180.396 251.413 175.523 254.465C170.241 257.739 165.291 261.517 160.744 265.746C156.843 269.377 153.257 273.331 150.028 277.566C159.709 274.566 169.054 270.581 177.913 265.673C182.899 262.86 187.612 259.612 192 255.976V257.109C185.331 262.601 177.951 267.182 170.055 270.725C163.254 274.205 156.071 276.888 148.649 278.72C148.649 278.72 146.662 279.182 144 279.743V262.546C145.656 262.088 147.362 261.578 149.117 261.013C162.496 256.701 176.677 248.528 186.126 240H192V246.79ZM106.576 258.953C107.206 259.981 107.949 260.936 108.793 261.798C110.07 262.904 111.529 263.783 113.104 264.397C113.104 264.397 111.158 269.278 110.641 270.725C110.157 272.443 109.771 274.187 109.483 275.948C108.77 275.268 108.094 274.547 107.463 273.79C106.821 272.793 106.285 271.733 105.862 270.627C105.502 269.485 105.214 268.322 105 267.145C105 267.145 105.295 264.397 105.468 263.637L106.576 258.953ZM217.729 240C217.838 242.338 217.562 244.682 216.906 246.937C216.893 246.992 214.875 255.456 203.777 265.869C200.043 269.218 196.107 272.319 192 275.162V257.109C192.547 256.659 193.091 256.203 193.629 255.74C196.532 253.24 203.741 246.837 207.323 240H217.729ZM219.788 249.806C221.061 250.837 222.102 252.124 222.843 253.582C222.772 256.396 222.24 259.18 221.267 261.822C220.609 263.533 219.783 265.177 218.803 266.728C218.126 264.775 216.925 263.045 215.33 261.725C213.966 260.797 212.483 260.055 210.921 259.518C210.921 259.518 211.931 258.07 213.926 254.784C215.298 252.586 216.437 250.252 217.325 247.819L219.788 249.806ZM109.927 241.173C109.867 241.994 109.925 242.821 110.099 243.626C110.48 244.814 111.055 245.933 111.799 246.937C114.029 248.906 116.817 250.139 119.779 250.468C124.578 251.014 129.434 250.799 134.165 249.83C137.492 249.134 140.774 248.259 144 247.215V262.546C130.367 266.32 120.116 266.503 113.351 263.857C105.766 260.891 106.33 254.96 106.33 254.515C106.376 252.699 106.64 250.896 107.118 249.144C107.882 246.348 109.927 241.173 109.927 241.173ZM203.531 244.655C200.008 248.753 196.149 252.538 192 255.976V246.79C195.728 245.566 199.607 244.847 203.531 244.655ZM130.284 240C129.317 240.973 128.332 241.992 127.489 242.938C124.616 246.166 121.864 249.858 121.849 249.879C119.284 249.765 116.769 249.131 114.459 248.016C113.76 247.528 113.094 246.995 112.464 246.421C112.49 246.382 114.956 242.742 117.09 240H130.284ZM144 246.38C141.211 247.292 138.382 248.084 135.52 248.751C138.185 245.718 141.016 242.841 144 240.134V246.38ZM160.85 240C160.067 240.405 159.276 240.797 158.478 241.173C153.823 243.585 148.979 245.603 144 247.215V246.38C148.77 244.821 153.42 242.91 157.911 240.658C158.341 240.443 158.769 240.223 159.194 240H160.85ZM112.647 240C111.757 241.598 110.893 243.468 110.888 243.479C110.624 242.336 110.553 241.161 110.672 240H112.647ZM144.148 240C144.099 240.045 144.049 240.089 144 240.134V240H144.148ZM182.568 220.45C181.217 222.597 179.64 224.595 177.863 226.409C172.344 231.831 166.052 236.409 159.194 240H144.148C149.133 235.494 154.541 231.46 160.301 227.954C175.203 219.101 183.652 218.268 183.652 218.268L182.568 220.45ZM182.494 207.771C182.494 207.771 185.155 208.581 187.421 209.537C188.825 210.13 190.663 210.967 192 211.629V233.895C191.817 234.119 191.63 234.347 191.437 234.576C189.914 236.379 188.125 238.196 186.126 240H160.85C168.643 235.962 175.605 230.488 181.361 223.859C184.039 220.882 185.544 217.04 185.599 213.044C185.391 211.423 184.744 209.888 183.727 208.605L182.494 207.771ZM48 240H0V192H48V240ZM144 209.381C143.607 209.481 143.219 209.599 142.836 209.733C140.309 210.782 137.878 212.045 135.569 213.51C134.929 214 131.431 216.772 130.84 217.36C130.33 218.086 129.923 218.878 129.633 219.715C129.633 219.715 135.642 214.81 137.269 213.902C138.308 213.322 141.693 211.479 144 210.225V215.789C143.907 215.847 143.815 215.904 143.723 215.962C139.998 218.353 134.615 222.686 134.56 222.73C134.592 222.735 137.661 223.193 144 220.186V221.111C143.413 221.387 142.82 221.65 142.22 221.897C139.343 222.988 136.306 223.601 133.229 223.712C132.041 223.625 130.879 223.318 129.805 222.805C129.443 222.504 129.151 222.129 128.947 221.706C128.743 221.283 128.633 220.822 128.623 220.353C128.89 219.008 129.52 217.761 130.445 216.747C131.082 215.991 133.304 213.972 133.327 213.951L133.254 213.829C129.947 215.999 126.817 218.426 123.894 221.088C121.823 222.964 120.148 225.232 118.967 227.759C118.631 228.31 118.417 228.925 118.339 229.564C118.261 230.204 118.32 230.853 118.514 231.468C118.707 232.083 119.03 232.649 119.461 233.13C119.892 233.611 120.42 233.995 121.012 234.257C123.45 235.32 126.118 235.759 128.771 235.532C133.994 235.087 139.113 233.957 144 232.191V240H130.284C132.625 237.647 134.88 235.582 134.88 235.582C131.83 236.232 128.708 236.487 125.593 236.342C124.139 236.105 122.7 235.786 121.282 235.386C121.261 235.409 119.182 237.649 117.834 239.064C117.594 239.358 117.344 239.673 117.09 240H112.647C112.775 239.77 112.904 239.546 113.03 239.334C114.04 237.642 117.834 231.977 117.834 231.977C117.659 231.114 117.592 230.232 117.637 229.353C117.773 228.407 118.055 227.489 118.474 226.63C118.474 226.63 116.232 229.254 114.582 231.339C112.916 233.55 111.665 236.043 110.888 238.696C110.788 239.127 110.717 239.563 110.672 240H96V192H144V209.381ZM240 240H217.729C217.704 239.475 217.659 238.95 217.596 238.427C216.865 236.145 215.821 233.974 214.492 231.977C213.63 230.628 209.295 225.085 209.295 225.085C209.605 225.764 209.876 226.461 210.107 227.17C210.28 227.906 211.265 231.216 208.014 238.573C207.803 239.05 207.572 239.526 207.323 240H192V233.895C200.07 223.989 198.209 218.269 197.053 216.183C196.239 214.719 195.081 213.474 193.678 212.554C193.453 212.376 192.821 212.036 192 211.629V192H240V240ZM148.305 207.869C148.375 207.841 157.319 204.244 163.306 205.147C169.316 206.055 169.735 208.507 169.932 209.145C170.129 209.782 171.508 215.644 157.615 225.184C153.381 228.107 148.802 230.456 144 232.191V221.111C146.597 219.891 149.056 218.396 151.334 216.649C153.338 215.352 154.801 213.373 155.448 211.082C155.498 209.905 155.053 207.599 151.802 207.648C150.631 207.582 149.457 207.656 148.305 207.869ZM198.604 217.777C198.924 219.267 199.048 220.793 198.974 222.314C198.345 224.564 197.521 226.755 196.511 228.862C199.211 228.806 201.907 229.077 204.541 229.671C206.138 230.221 207.681 230.92 209.147 231.756C209.567 229.545 209.326 227.26 208.457 225.184C207.662 223.65 206.651 222.236 205.452 220.989C204.124 220.062 202.724 219.242 201.265 218.537C200.394 218.232 199.505 217.978 198.604 217.777ZM154.709 209.635C154.709 209.635 156.457 213.412 146.186 219.077C145.418 219.491 144.69 219.858 144 220.186V215.789C148.874 212.753 154.709 209.635 154.709 209.635ZM171.508 205C174.583 205.22 177.583 206.054 180.327 207.452C181.301 207.834 182.18 208.422 182.903 209.176C183.626 209.93 184.176 210.831 184.515 211.817L184.44 211.695C181.873 211.663 179.306 211.794 176.755 212.088C174.433 212.519 172.139 213.084 169.883 213.779L170.474 212.676C170.85 211.632 170.985 210.517 170.868 209.414C170.594 208.273 169.995 207.234 169.144 206.423C168.403 205.943 167.629 205.517 166.828 205.147C166.841 205.147 170.057 205 171.508 205ZM144 210.225V209.381C144.741 209.191 145.496 209.062 146.26 208.997C146.26 208.997 145.301 209.517 144 210.225ZM48 156.669C50.6901 159.063 53.5359 161.279 56.5225 163.298C60.3213 165.399 64.411 166.92 68.6562 167.811C77.6886 169.562 86.9549 169.64 96 168.053V171.675C94.8422 171.033 93.7216 170.324 92.6475 169.546C88.8878 170.033 85.0993 170.264 81.3086 170.239C75.19 170.066 71.3525 169.511 71.3525 169.511C71.3525 169.511 72.6318 170.899 73.3232 171.523C74.516 172.585 75.8268 173.505 77.2295 174.266C78.5431 174.96 93.7881 176.349 93.7881 176.349L96 176.086V177.388C94.6984 177.423 93.3949 177.403 92.0938 177.32H91.8174C93.2092 177.496 94.6039 177.636 96 177.743V192H48V156.669ZM192 192H144V167.159C146.84 165.56 149.593 163.797 152.243 161.875C157.845 158.011 162.843 153.333 167.073 147.992C168.164 146.7 169.205 145.368 170.197 144H192V192ZM288 192H240V144H288V192ZM144 167.159C137.164 171.01 129.82 173.908 122.169 175.758C113.589 177.752 104.765 178.418 96 177.743V177.388C97.5718 177.345 99.1412 177.221 100.701 177.008C105.141 176.551 109.551 175.832 113.907 174.855C113.974 174.839 120.421 173.219 123.31 172.184C126.213 171.142 130.119 169.65 135.685 167.186C138.544 166.041 141.322 164.705 144 163.19V167.159ZM96 171.675C96.878 172.162 97.7765 172.611 98.6963 173.017C102.852 173.916 107.098 174.335 111.349 174.266L96 176.086V171.675ZM132.885 157.467C133.188 158.495 133.734 159.436 134.475 160.209C135.823 161.361 137.545 161.978 139.314 161.944C140.897 161.957 142.473 161.755 144 161.347V161.588C140.357 163.727 136.614 165.689 132.781 167.463C128.91 169.094 122.652 170.934 122.652 170.934C120.702 170.716 118.902 169.775 117.605 168.296C114.978 165.728 114.84 164.582 114.84 164.582C114.84 164.582 125.211 160.799 126.939 159.966L132.885 157.467ZM186.465 96C186.2 102.778 184.35 109.416 181.039 115.366C174.034 126.673 164.813 136.412 153.951 144H144V150.332C130.06 158.483 114.86 164.278 99.0078 167.463C98.0085 167.681 97.0054 167.876 96 168.053V154.39C102.167 152.929 108.994 150.851 116.465 147.923C119.645 146.723 122.778 145.413 125.858 144H144V134.087C153.207 128.185 161.763 121.262 169.493 113.423C174.351 108.141 178.554 102.291 182.018 96H186.465ZM162.002 144C161.978 144.128 161.953 144.256 161.923 144.383C160.977 147.441 159.544 150.323 157.686 152.924C158.564 152.2 164.047 147.658 167.315 144.312C167.413 144.209 167.509 144.104 167.606 144H169.188C169.082 144.116 168.977 144.232 168.871 144.348C165.505 147.747 161.913 150.913 158.12 153.823C157.532 154.205 155.389 155.975 148.752 160.244C147.207 161.291 145.622 162.273 144 163.19V161.588C144.27 161.429 144.542 161.272 144.812 161.111C144.543 161.197 144.272 161.274 144 161.347V150.332C146.168 149.064 148.306 147.741 150.411 146.36C151.61 145.599 152.79 144.812 153.951 144H162.002ZM67.5283 144C66.7246 147.388 66.2671 150.854 66.168 154.344V156.53C69.2999 156.694 72.4384 156.694 75.5703 156.53C79.2953 156.373 83.0041 155.944 86.667 155.246C86.737 151.422 87.364 147.633 88.5225 144H96V154.39C78.8519 158.451 66.8067 157.735 60.2217 157.225C56.0163 156.713 51.9074 155.639 48 154.042V152.968C50.9837 154.148 54.0342 155.28 54.0342 155.28C54.0236 155.267 53.2025 154.271 52.9277 153.857C51.5803 151.719 50.5877 149.374 49.9893 146.916C49.822 145.948 49.6798 144.975 49.5605 144H67.5283ZM42.6611 151.463C44.3891 152.436 46.1728 153.295 48 154.042V156.669C46.144 155.017 44.3614 153.281 42.6611 151.463ZM157.566 153.024V153.094C157.607 153.038 157.645 152.98 157.686 152.924C157.607 152.989 157.566 153.024 157.566 153.024ZM48 139.562C48.3975 139.634 48.7954 139.703 49.1943 139.767C49.2658 141.182 49.3886 142.594 49.5605 144H48V152.968C47.0039 152.574 46.0146 152.174 45.1494 151.81C42.6313 150.769 40.2969 149.328 38.2363 147.541C37.3634 146.441 36.6103 145.253 35.9824 144H48V139.562ZM122.702 144C119.93 145.269 118.055 146.083 118.055 146.083C118.475 145.378 118.911 144.684 119.359 144H122.702ZM19.8467 96C19.6645 97.4097 19.5 98.9502 19.5 98.9502C19.8001 100.617 20.2043 102.262 20.71 103.878C21.3032 105.444 22.0563 106.945 22.957 108.355C23.8434 109.427 24.7892 110.447 25.791 111.41C26.1943 108.917 26.7371 106.449 27.416 104.018C27.9765 102.437 29.7337 97.9589 30.5049 96H37.1992C40.4116 96.6152 44.0129 96.894 48 96.8115V97.751C45.8674 97.7677 44.1598 97.7695 44.1475 97.7695C44.1475 97.7695 40.6905 103.844 39.0312 107.939C37.614 111.237 35.8857 116.547 35.8857 116.547C38.0658 117.17 40.2823 117.656 42.5225 118.004C44.3441 118.204 46.1709 118.352 48 118.451V119.547C45.6848 119.436 43.3727 119.236 41.0703 118.941C37.4766 118.411 33.9815 117.347 30.7002 115.783C28.4161 114.969 26.3555 113.625 24.6855 111.861C23.3568 110.477 22.1962 108.938 21.2285 107.279C21.2285 107.279 21.8163 109.918 22.957 115.575C23.7548 119.481 25.0079 123.278 26.6904 126.89C30.7728 132.275 36.6733 135.977 43.2832 137.302C44.8453 137.679 46.419 137.996 48 138.26V139.562C44.672 138.965 41.3951 138.106 38.2012 136.989C36.5072 136.156 33.6035 134.63 33.6035 134.63V136.226C33.8805 138.35 34.4394 140.428 35.2637 142.404C35.4796 142.947 35.7213 143.479 35.9824 144H0V96H19.8467ZM92.0938 135.428C92.0811 135.456 89.6404 140.875 89.4668 141.362C89.1201 142.231 88.8058 143.111 88.5225 144H67.5283C67.8666 142.574 68.2649 141.161 68.7256 139.767C68.7256 139.767 72.0787 139.419 77.5059 138.898C83.5712 137.895 92.0417 135.443 92.0938 135.428ZM144 122.943C142.614 123.588 141.166 124.332 139.66 125.188C131.455 129.707 124.49 136.171 119.359 144H96V132.768C96.6005 132.571 97.2 132.37 97.7979 132.165C114.356 126.743 129.936 118.777 144 108.587V122.943ZM144 134.087C138.198 137.807 132.137 141.121 125.858 144H122.702C127.371 141.862 134.584 138.433 139.66 135.428C141.117 134.496 142.564 133.548 144 132.585V134.087ZM174.506 126.751C174.512 126.772 174.855 127.913 175.197 129.735C175.325 131.617 175.209 133.507 174.852 135.358C172.595 138.37 170.176 141.253 167.606 144H162.002C162.289 142.466 162.144 140.878 161.577 139.419C161.623 139.378 167.528 134.069 169.009 132.824C170.495 131.575 174.506 126.751 174.506 126.751ZM173.123 139.627C172.204 141.122 171.227 142.581 170.197 144H169.188C171.189 141.818 173.123 139.627 173.123 139.627ZM240 144H192V96H240V144ZM96 132.768C86.2029 135.977 76.0629 138.025 65.7871 138.864C59.8504 139.449 53.8705 139.241 48 138.26V119.547C52.1534 119.745 56.3186 119.649 60.4639 119.254C67.9653 118.351 80.7559 115.332 80.7559 115.332C85.9283 114.045 91.0175 112.459 96 110.587V132.768ZM144 122.943C155.248 117.71 162.372 118.977 162.372 118.977C156.464 123.801 150.332 128.341 144 132.585V122.943ZM67.0088 96C65.9795 97.4983 62.7655 102.203 60.0488 106.481C57.7349 110.351 55.7348 114.402 54.0684 118.595C52.0441 118.61 50.0205 118.56 48 118.451V97.751C49.7896 97.7369 51.8785 97.7134 53.5156 97.666C57.3251 97.269 61.1158 96.7112 64.8789 96H67.0088ZM96 109.034C91.6202 110.739 87.1819 112.297 82.6914 113.7C86.7415 108.343 91.1913 103.304 96 98.625V109.034ZM125.9 96C121.044 98.9836 116 101.663 110.796 104.018C105.992 106.497 101.051 108.689 96 110.587V109.034C104.871 105.581 113.5 101.517 121.823 96.8672C122.325 96.5816 122.824 96.2918 123.322 96H125.9ZM159.31 96C158.922 96.3795 158.525 96.7612 158.12 97.1445C153.613 101.22 148.898 105.038 144 108.587V96H159.31ZM97.7285 96.9717C97.1471 97.5174 96.5714 98.069 96 98.625V96H98.7764C98.4256 96.3221 98.0759 96.6458 97.7285 96.9717ZM180.573 96C180.145 96.8013 179.69 97.5888 179.207 98.3594C178.926 97.5429 178.579 96.7548 178.175 96H180.573ZM57.6387 96C54.2088 96.48 50.9958 96.7495 48 96.8115V96H57.6387ZM144 96H125.9C132.234 92.1092 138.248 87.6997 143.878 82.8105C143.918 82.7755 143.959 82.7392 144 82.7031V96ZM26.4141 62.1943C26.3308 63.3569 26.4115 64.5255 26.6553 65.665C27.1908 67.3469 27.9971 68.9296 29.041 70.3506C32.1708 73.1377 36.0834 74.8838 40.2412 75.3486C42.8206 75.6449 45.4116 75.7811 48 75.7617V96H37.1992C35.0276 95.5841 33.0338 95.0147 31.2188 94.2988C20.5717 90.0992 21.3672 81.6999 21.3672 81.0752C21.4309 78.5063 21.8017 75.9544 22.4727 73.4746C23.5423 69.5253 26.4034 62.2214 26.4141 62.1943ZM21.7119 87.3574C22.5952 88.8125 23.639 90.1633 24.8232 91.3838C26.6151 92.9488 28.6616 94.1929 30.873 95.0625C30.8715 95.0665 30.7312 95.425 30.5049 96H19.8467C19.9539 95.17 20.0676 94.385 20.1572 93.9863L21.7119 87.3574ZM96 96H67.0088C67.2214 95.6905 67.3402 95.5174 67.3428 95.5137C66.523 95.6841 65.7014 95.8445 64.8789 96H57.6387C64.6604 95.0172 72.5891 93.14 81.4121 90.2725C86.2442 88.702 91.1507 86.7682 96 84.5586V96ZM144 81.084C137.601 86.691 130.68 91.6874 123.322 96H98.7764C104.868 90.4067 111.46 85.387 118.47 81.0059C125.308 76.687 132.629 73.1923 140.282 70.5938C141.509 70.1564 142.75 69.7607 144 69.4033V81.084ZM192 96H186.465C186.509 94.8692 186.511 93.7347 186.466 92.5986C186.356 89.6093 186.056 86.6296 185.567 83.6787L185.118 86.9062C185.11 86.9342 183.043 93.8855 182.249 95.583C182.173 95.7226 182.094 95.8608 182.018 96H180.573C181.365 94.5193 182.065 92.9893 182.664 91.418C184.03 87.6778 184.776 83.7381 184.876 79.7559C183.836 77.6922 182.376 75.8711 180.59 74.4111L177.133 71.5996C175.887 75.0423 174.288 78.3461 172.362 81.457C169.571 86.0931 168.154 88.1423 168.145 88.1553C170.336 88.9155 172.418 89.9663 174.333 91.2793C175.91 92.5958 177.21 94.201 178.175 96H159.31C173.858 81.7732 176.534 70.3967 176.545 70.3506C177.671 66.4423 178.001 62.3457 177.513 58.3066C176.487 55.0769 175.021 52.0051 173.157 49.1787C172.98 48.8985 172.695 48.4923 172.342 48H192V96ZM288 96H240V48H288V96ZM144 21.7256C145.945 23.0248 147.551 24.7745 148.683 26.8271C150.149 29.4949 152.423 36.3608 144.496 48H144V48.7148C143.068 50.0357 142.007 51.4165 140.801 52.8574C131.163 64.3653 113.978 76.3669 96 84.5586V61.4873C103.333 57.8553 110.167 53.3211 116.349 48H144V21.7256ZM164.062 48C164.599 48.276 165.132 48.5645 165.656 48.8662C165.71 48.5784 165.753 48.2893 165.792 48H167.229C166.912 50.534 166.052 53.9815 164.065 58.5146C159.545 68.8305 148.441 78.8395 144 82.7031V81.084C148.913 76.7789 153.519 72.1153 157.774 67.123C153.107 67.3535 148.486 68.1207 144 69.4033V48.7148C144.17 48.4745 144.335 48.2364 144.496 48H164.062ZM90.1885 48C79.9178 55.1081 70.5573 63.4761 62.3301 72.9189C73.2176 70.359 83.7654 66.5139 93.7529 61.4648C94.5068 61.0843 95.2556 60.6943 96 60.2969V61.4873C95.518 61.726 95.0351 61.9634 94.5488 62.1943C83.7844 67.819 72.3043 71.9411 60.4287 74.4463C56.3324 75.2923 52.1696 75.7305 48 75.7617V68.3057C48.9652 67.1265 50.0074 65.8874 51.0615 64.6934C55.106 60.1119 61.4316 54.2803 61.4316 54.2803C57.1518 55.2006 52.7715 55.5624 48.3994 55.3564C48.2661 55.3345 48.1331 55.311 48 55.2881V54.0977C49.6045 54.3116 51.2334 54.3511 52.8584 54.2109C61.5496 53.4634 70.0336 51.3569 78.0137 48H90.1885ZM42.3496 54.0029C44.209 54.5319 46.0954 54.9601 48 55.2881V68.3057C45.262 71.6509 43.1445 74.5156 43.1445 74.5156C39.5451 74.3539 36.0164 73.4564 32.7744 71.8779C31.7935 71.1877 30.8582 70.434 29.9746 69.6221C29.9746 69.6221 34.3295 63.131 37.5098 59.209C39.4071 57.2001 42.3375 54.0161 42.3496 54.0029ZM37.3232 48C37.3705 48.3948 37.4311 48.7883 37.5098 49.1787C37.4757 49.2299 32.1825 57.2034 30.7695 59.5908C29.3522 61.9857 27.7617 65.457 27.7617 65.457C27.2528 63.23 27.2528 60.9156 27.7617 58.6885C28.853 54.9331 30.6098 51.4061 32.9473 48.2764C33.0192 48.1848 33.0926 48.0929 33.166 48H37.3232ZM114.35 48C108.661 52.699 102.515 56.8188 96 60.2969V48H114.35ZM96 37.6562C95.1605 38.28 94.2746 38.9165 93.3389 39.5645C88.5187 42.9204 83.3798 45.7427 78.0137 48H48V54.0977C45.9287 53.8215 43.8983 53.2545 41.9697 52.4062C41.1399 52.0358 40.3982 51.4922 39.7939 50.8115C39.1898 50.1309 38.7363 49.329 38.4648 48.459C38.4176 48.3076 38.3786 48.1539 38.3428 48H48V31.9912C51.5247 28.9151 55.2495 26.0767 59.1504 23.4951L59.2539 23.668C59.2539 23.668 56.1078 26.5491 55.209 27.625C53.9098 29.0602 53.0257 30.8249 52.6514 32.7275C52.6652 33.3912 52.8204 34.0441 53.1064 34.6426C53.3927 35.2413 53.8032 35.7722 54.3105 36.1982C55.8181 36.9239 57.4479 37.3596 59.1152 37.4824C63.4328 37.3259 67.696 36.4582 71.7334 34.9141C76.3043 33.0152 80.6048 30.5174 84.5234 27.4863C87.336 25.6502 89.3882 22.8498 90.2969 19.6074C90.366 17.9414 89.7432 14.6788 85.1807 14.748C83.5379 14.654 81.8893 14.759 80.2715 15.0605C80.2913 15.0525 88.4308 11.7437 96 11.1084V37.6562ZM96 48H90.1885C92.0949 46.6806 94.0322 45.4041 96 44.1729V48ZM48 31.9912C47.3309 32.5752 46.6682 33.1676 46.0137 33.7686C43.1079 36.4233 40.758 39.6327 39.1006 43.209C38.6296 43.9884 38.3293 44.8596 38.2197 45.7646C38.1292 46.5124 38.1726 47.2689 38.3428 48H37.3232C37.2226 47.1596 37.1908 46.3116 37.2334 45.4648C37.4242 44.1273 37.8211 42.8277 38.4092 41.6123C38.4092 41.6123 35.4564 45.0997 33.166 48H0V0H48V31.9912ZM144 21.7256C143.982 21.7139 143.965 21.7021 143.947 21.6904C143.118 21.031 138.346 18.7745 135.166 17.4209C131.997 16.0723 128.28 14.9302 128.253 14.9219L129.981 16.1025C131.409 17.918 132.317 20.0894 132.608 22.3838C132.532 28.0392 130.419 33.4762 126.662 37.6904C123.477 41.3895 120.028 44.8333 116.349 48H114.35C116.913 45.882 119.384 43.6468 121.754 41.2998C124.247 38.7319 126.46 35.9048 128.356 32.8662L129.878 29.7773C129.878 29.7773 118.02 30.9568 97.1064 43.4863C96.7365 43.7134 96.3679 43.9427 96 44.1729V37.6562C112.653 25.2835 110.886 17.7243 110.623 16.8652C110.346 15.9624 109.758 12.4921 101.324 11.208C99.6684 10.9559 97.8511 10.953 96 11.1084V0H144V21.7256ZM150.86 29.083C152.125 29.3671 153.372 29.7267 154.594 30.1592C156.641 31.1574 158.607 32.3179 160.471 33.6299C162.153 35.3949 163.573 37.3934 164.688 39.5645C165.796 42.2333 166.172 45.1445 165.792 48H164.062C162.489 47.1931 160.862 46.4963 159.191 45.916C155.495 45.0752 151.711 44.6904 147.922 44.7705C149.34 41.7884 150.497 38.6879 151.379 35.5039C151.483 33.3501 151.308 31.1919 150.86 29.083ZM165.863 39.4258C165.863 39.4258 170.29 45.138 172.342 48H167.229C167.641 44.7136 167.141 42.9639 167.004 42.376C166.678 41.3721 166.298 40.3872 165.863 39.4258ZM240 48H192V0H240V48ZM89.2598 17.5596C89.2598 17.5596 91.7136 22.9045 77.2988 30.9219C66.3022 36.9096 61.0118 36.0983 60.9824 36.0938C61.0142 36.0679 68.5984 29.9089 73.8418 26.5146C80.7555 22.1415 89.2598 17.5596 89.2598 17.5596ZM77.4023 16.6572C77.4023 16.6572 67.0675 22.314 64.7852 23.5986C62.5036 24.8828 54.0684 31.8252 54.0684 31.8252C54.4762 30.6411 55.0469 29.5195 55.7627 28.4932C56.5923 27.6603 61.4999 23.7387 62.3994 23.0439C65.639 20.9708 69.0515 19.1818 72.5977 17.6982C74.1486 17.1477 75.7633 16.7979 77.4023 16.6572ZM112.835 11C110.807 11 106.32 11.2056 106.268 11.208C107.392 11.731 108.478 12.3342 109.517 13.0127C110.712 14.1613 111.552 15.6316 111.937 17.2471C112.101 18.8079 111.911 20.3861 111.383 21.8633L110.554 23.4258C113.72 22.4414 116.94 21.6411 120.198 21.0303C123.778 20.615 127.38 20.4301 130.983 20.4756L131.087 20.6484C130.612 19.2525 129.841 17.9769 128.826 16.9102C127.811 15.8435 126.578 15.0109 125.211 14.4707C121.359 12.4921 117.15 11.3118 112.835 11Z" fill="#FEE400"/>
</g>
<defs>
<clipPath id="clip0_5961_44380">
<rect width="275" height="352" fill="white"/>
</clipPath>
</defs>
</svg>
