<svg width="275" height="352" viewBox="0 0 275 352" fill="none" xmlns="http://www.w3.org/2000/svg">
<g clip-path="url(#clip0_5959_61548)">
<rect width="275" height="352" fill="#028B6C"/>
<rect x="31" width="32" height="176" fill="#A5FF5B"/>
<rect x="95" width="32" height="176" fill="#A5FF5B"/>
<rect x="159" width="32" height="176" fill="#A5FF5B"/>
<rect x="223" width="32" height="176" fill="#A5FF5B"/>
<rect x="-0.5" y="176" width="32" height="88" fill="#A5FF5B"/>
<rect x="31.5" y="264" width="32" height="44" fill="#A5FF5B"/>
<rect x="-0.5" y="308" width="32" height="44" fill="#A5FF5B"/>
<rect x="63.5" y="176" width="32" height="88" fill="#A5FF5B"/>
<rect x="95.5" y="264" width="32" height="44" fill="#A5FF5B"/>
<rect x="63.5" y="308" width="32" height="44" fill="#A5FF5B"/>
<rect x="127.5" y="176" width="32" height="88" fill="#A5FF5B"/>
<rect x="159.5" y="264" width="32" height="44" fill="#A5FF5B"/>
<rect x="127.5" y="308" width="32" height="44" fill="#A5FF5B"/>
<rect x="191.5" y="176" width="32" height="88" fill="#A5FF5B"/>
<rect x="223.5" y="264" width="32" height="44" fill="#A5FF5B"/>
<rect x="191.5" y="308" width="32" height="44" fill="#A5FF5B"/>
<rect x="255.5" y="176" width="32" height="88" fill="#A5FF5B"/>
<rect x="255.5" y="308" width="32" height="44" fill="#A5FF5B"/>
</g>
<defs>
<clipPath id="clip0_5959_61548">
<rect width="275" height="352" fill="white"/>
</clipPath>
</defs>
</svg>
