<svg width="275" height="352" viewBox="0 0 275 352" fill="none" xmlns="http://www.w3.org/2000/svg">
<g clip-path="url(#clip0_5955_59188)">
<rect width="275" height="352" fill="#01DDEE"/>
<path d="M275.52 32.0957L220.52 48.0957L220.52 32.0957L165.52 48.0957V32.0957L109.52 48.0957V32.0957L54.5195 48.0957V32.0957L-0.480469 48.0957L-0.480469 16.0957L54.5195 0.0957031L54.5195 16.0957L109.52 0.0957031V16.0957L165.52 0.0957031V16.0957L220.52 0.0957031V16.0957L275.52 0.0957031L275.52 32.0957Z" fill="#514FF6"/>
<path d="M275.52 97L220.52 113V97L165.52 113V97L109.52 113V97L54.5195 113V97L-0.480469 113V81L54.5195 65L54.5195 81L109.52 65L109.52 81L165.52 65V81L220.52 65V81L275.52 65V97Z" fill="#514FF6"/>
<path d="M275.52 162L220.52 178V162L165.52 178V162L109.52 178V162L54.5195 178V162L-0.480469 178V146L54.5195 130V146L109.52 130V146L165.52 130V146L220.52 130V146L275.52 130V162Z" fill="#514FF6"/>
<path d="M275.52 227L220.52 243V227L165.52 243V227L109.52 243V227L54.5195 243V227L-0.480469 243V211L54.5195 195V211L109.52 195V211L165.52 195V211L220.52 195V211L275.52 195V227Z" fill="#514FF6"/>
<path d="M275.52 292L220.52 308L220.52 292L165.52 308V292L109.52 308V292L54.5195 308V292L-0.480469 308L-0.480469 276L54.5195 260V276L109.52 260L109.52 276L165.52 260V276L220.52 260V276L275.52 260L275.52 292Z" fill="#514FF6"/>
<path d="M275.52 357L220.52 373V357L165.52 373V357L109.52 373V357L54.5195 373V357L-0.480469 373V341L54.5195 325L54.5195 341L109.52 325L109.52 341L165.52 325V341L220.52 325V341L275.52 325V357Z" fill="#514FF6"/>
</g>
<defs>
<clipPath id="clip0_5955_59188">
<rect width="275" height="352" fill="white"/>
</clipPath>
</defs>
</svg>
